<svg xmlns="http://www.w3.org/2000/svg" xmlns:xlink="http://www.w3.org/1999/xlink" width="500" zoomAndPan="magnify" viewBox="0 0 375 374.999991" height="500" preserveAspectRatio="xMidYMid meet" version="1.0"><path fill="#68bd45" d="M 333.292969 29.578125 C 328.296875 41.570312 321.964844 52.808594 314.304688 63.296875 C 268.894531 17.855469 202.589844 0.378906 140.71875 17.628906 C 78.851562 34.878906 30.953125 83.820312 15.367188 146.175781 C -0.21875 208.53125 18.875 274.425781 65.386719 318.761719 L 71.972656 324.585938 C 75.09375 327.21875 78.304688 329.742188 81.601562 332.15625 C 84.898438 334.570312 88.273438 336.867188 91.730469 339.046875 C 95.183594 341.226562 98.710938 343.285156 102.308594 345.222656 C 105.902344 347.160156 109.5625 348.972656 113.28125 350.660156 C 117.003906 352.34375 120.777344 353.902344 124.605469 355.328125 C 128.433594 356.753906 132.304688 358.046875 136.222656 359.207031 C 140.136719 360.367188 144.089844 361.390625 148.078125 362.277344 C 152.0625 363.164062 156.074219 363.914062 160.113281 364.527344 C 164.152344 365.136719 168.207031 365.609375 172.277344 365.941406 C 176.347656 366.273438 180.425781 366.464844 184.507812 366.519531 C 188.59375 366.570312 192.671875 366.480469 196.75 366.25 C 200.828125 366.023438 204.894531 365.652344 208.945312 365.144531 C 213 364.636719 217.027344 363.988281 221.035156 363.203125 C 225.042969 362.414062 229.019531 361.492188 232.964844 360.429688 C 236.910156 359.371094 240.8125 358.175781 244.675781 356.847656 C 248.539062 355.519531 252.351562 354.058594 256.113281 352.46875 C 259.875 350.875 263.578125 349.15625 267.222656 347.3125 C 270.867188 345.464844 274.441406 343.496094 277.953125 341.402344 C 281.460938 339.3125 284.894531 337.101562 288.25 334.773438 C 291.605469 332.441406 294.878906 330 298.070312 327.449219 C 301.257812 324.894531 304.355469 322.234375 307.363281 319.464844 C 310.371094 316.699219 313.277344 313.832031 316.089844 310.863281 C 318.898438 307.894531 321.601562 304.835938 324.203125 301.683594 C 326.800781 298.527344 329.289062 295.289062 331.667969 291.964844 C 334.042969 288.640625 336.304688 285.238281 338.445312 281.757812 C 340.589844 278.277344 342.613281 274.726562 344.511719 271.105469 C 346.410156 267.488281 348.183594 263.804688 349.828125 260.0625 C 351.476562 256.324219 352.992188 252.527344 354.378906 248.683594 C 355.765625 244.835938 357.015625 240.945312 358.136719 237.015625 C 359.253906 233.082031 360.238281 229.117188 361.085938 225.117188 C 361.929688 221.117188 362.640625 217.09375 363.210938 213.042969 C 363.78125 208.996094 364.210938 204.929688 364.5 200.851562 C 369.347656 155.421875 356.042969 97.9375 333.292969 29.597656 Z M 90.730469 319.78125 C 86.851562 324.574219 80.46875 326.566406 74.554688 324.824219 C 68.644531 323.082031 64.367188 317.925781 63.722656 311.789062 C 63.074219 305.652344 66.191406 299.734375 71.609375 296.785156 C 77.027344 293.835938 83.679688 294.464844 88.46875 298.34375 C 95 303.644531 96.003906 313.246094 90.710938 319.789062 Z M 332.539062 266.347656 C 288.558594 325.003906 194.644531 305.222656 134.417969 308.058594 C 134.417969 308.058594 123.746094 308.6875 112.996094 310.457031 C 112.996094 310.457031 117.046875 308.726562 122.234375 306.773438 C 164.527344 292.027344 184.511719 289.203125 210.199219 275.96875 C 258.574219 251.355469 306.40625 197.445312 316.355469 141.410156 C 297.957031 195.316406 242.085938 241.667969 191.222656 260.496094 C 156.363281 273.359375 93.390625 285.882812 93.390625 285.882812 L 90.855469 284.519531 C 47.992188 263.675781 46.664062 170.777344 124.496094 140.816406 C 158.710938 127.660156 191.261719 134.882812 228.105469 126.070312 C 267.449219 116.710938 312.972656 87.195312 331.503906 48.691406 C 352.222656 110.296875 377.179688 206.628906 332.425781 266.378906 Z M 332.539062 266.347656 " fill-opacity="1" fill-rule="nonzero"/></svg>