<svg xmlns="http://www.w3.org/2000/svg" xmlns:xlink="http://www.w3.org/1999/xlink" width="500" zoomAndPan="magnify" viewBox="0 0 375 374.999991" height="500" preserveAspectRatio="xMidYMid meet" version="1.0"><defs><clipPath id="7f60c0e3e2"><path d="M 0 51.5625 L 375 51.5625 L 375 323.8125 L 0 323.8125 Z M 0 51.5625 " clip-rule="nonzero"/></clipPath></defs><g clip-path="url(#7f60c0e3e2)"><path fill="#3b82f6" d="M 361.125 51.914062 L 13.875 51.914062 C 6.21875 51.914062 0 58.125 0 65.765625 L 0 309.21875 C 0 316.867188 6.21875 323.085938 13.875 323.085938 L 361.125 323.085938 C 368.78125 323.085938 375 316.863281 375 309.21875 L 375 65.765625 C 375 58.125 368.78125 51.914062 361.125 51.914062 Z M 355.046875 260.945312 C 355.046875 264.527344 352.144531 267.433594 348.554688 267.433594 C 340.628906 267.433594 333.207031 270.554688 327.660156 276.222656 C 322.320312 281.703125 319.371094 288.949219 319.371094 296.617188 C 319.371094 300.199219 316.476562 303.101562 312.890625 303.101562 L 62.140625 303.101562 C 58.554688 303.101562 55.65625 300.199219 55.65625 296.617188 C 55.65625 288.683594 52.523438 281.269531 46.851562 275.734375 C 41.382812 270.382812 34.136719 267.433594 26.46875 267.433594 C 22.882812 267.433594 19.984375 264.53125 19.984375 260.945312 L 19.984375 120.945312 C 19.984375 118.976562 20.871094 117.113281 22.402344 115.886719 C 23.945312 114.648438 25.941406 114.179688 27.871094 114.617188 C 37.664062 116.789062 48.054688 113.703125 55.101562 106.5 C 61.984375 99.429688 64.820312 89.429688 62.691406 79.765625 C 62.269531 77.847656 62.734375 75.835938 63.96875 74.304688 C 65.195312 72.773438 67.066406 71.878906 69.023438 71.878906 L 312.882812 71.878906 C 316.46875 71.878906 319.367188 74.78125 319.367188 78.367188 C 319.367188 86.308594 322.492188 93.726562 328.167969 99.246094 C 333.648438 104.605469 340.886719 107.558594 348.550781 107.558594 C 352.136719 107.558594 355.039062 110.460938 355.039062 114.042969 L 355.039062 260.945312 Z M 355.046875 260.945312 " fill-opacity="1" fill-rule="nonzero"/></g><path fill="#3b82f6" d="M 306.882812 84.847656 L 76.34375 84.847656 C 76.695312 96.1875 72.460938 107.261719 64.378906 115.558594 C 56.363281 123.761719 45.640625 128.28125 34.199219 128.28125 C 33.785156 128.28125 33.367188 128.273438 32.953125 128.269531 L 32.953125 254.957031 C 41.582031 256.28125 49.566406 260.25 55.917969 266.449219 C 62.546875 272.914062 66.769531 281.160156 68.140625 290.136719 L 306.894531 290.136719 C 308.21875 281.511719 312.179688 273.519531 318.375 267.164062 C 324.847656 260.546875 333.097656 256.332031 342.066406 254.957031 L 342.066406 120.03125 C 333.429688 118.699219 325.453125 114.730469 319.105469 108.527344 C 312.488281 102.078125 308.261719 93.835938 306.882812 84.847656 Z M 188.296875 224.097656 C 187.160156 226.171875 184.976562 227.46875 182.613281 227.46875 L 182.601562 227.46875 L 164.070312 227.445312 L 154.71875 245.460938 C 153.648438 247.519531 151.566406 248.847656 149.25 248.953125 C 149.148438 248.953125 149.054688 248.957031 148.960938 248.957031 C 146.753906 248.957031 144.691406 247.832031 143.492188 245.957031 L 121.542969 211.585938 L 99.585938 245.957031 C 98.390625 247.832031 96.320312 248.957031 94.117188 248.957031 C 94.023438 248.957031 93.925781 248.957031 93.828125 248.953125 C 91.507812 248.84375 89.417969 247.511719 88.359375 245.457031 L 79.035156 227.445312 L 60.472656 227.46875 L 60.464844 227.46875 C 58.09375 227.46875 55.917969 226.171875 54.78125 224.097656 C 53.644531 222.019531 53.726562 219.476562 55.003906 217.480469 L 80.945312 177.007812 C 79.492188 172.734375 78.664062 168.230469 78.609375 163.589844 C 78.472656 152.117188 82.808594 141.285156 90.828125 133.078125 C 98.988281 124.722656 109.90625 120.128906 121.566406 120.128906 C 132.835938 120.128906 143.484375 124.464844 151.558594 132.34375 C 163.746094 144.246094 167.273438 161.691406 162.15625 176.855469 L 188.085938 217.492188 C 189.355469 219.484375 189.433594 222.019531 188.296875 224.097656 Z M 314.019531 196.933594 L 209.304688 196.933594 C 205.71875 196.933594 202.816406 194.03125 202.816406 190.445312 C 202.816406 186.863281 205.71875 183.960938 209.304688 183.960938 L 314.019531 183.960938 C 317.605469 183.960938 320.503906 186.863281 320.503906 190.445312 C 320.503906 194.03125 317.605469 196.933594 314.019531 196.933594 Z M 314.019531 166.125 L 209.304688 166.125 C 205.71875 166.125 202.816406 163.222656 202.816406 159.636719 C 202.816406 156.046875 205.71875 153.152344 209.304688 153.152344 L 314.019531 153.152344 C 317.605469 153.152344 320.503906 156.054688 320.503906 159.636719 C 320.503906 163.214844 317.605469 166.125 314.019531 166.125 Z M 314.019531 166.125 " fill-opacity="1" fill-rule="nonzero"/><path fill="#3b82f6" d="M 121.558594 133.09375 C 113.417969 133.09375 105.804688 136.304688 100.105469 142.136719 C 94.511719 147.859375 91.480469 155.417969 91.578125 163.425781 C 91.679688 171.429688 94.886719 178.921875 100.613281 184.519531 C 106.246094 190.011719 113.671875 193.035156 121.546875 193.035156 C 129.691406 193.035156 137.296875 189.828125 142.972656 184.011719 C 154.523438 172.171875 154.300781 153.164062 142.488281 141.621094 C 136.851562 136.117188 129.417969 133.09375 121.558594 133.09375 Z M 121.558594 133.09375 " fill-opacity="1" fill-rule="nonzero"/><path fill="#3b82f6" d="M 88.078125 189.914062 L 72.332031 214.480469 L 82.964844 214.46875 L 82.972656 214.46875 C 85.390625 214.46875 87.617188 215.820312 88.730469 217.972656 L 94.707031 229.507812 L 110.632812 204.570312 C 103.511719 202.707031 96.949219 199.066406 91.554688 193.796875 C 90.296875 192.570312 89.152344 191.261719 88.078125 189.914062 Z M 88.078125 189.914062 " fill-opacity="1" fill-rule="nonzero"/><path fill="#3b82f6" d="M 132.449219 204.570312 L 148.371094 229.511719 L 154.367188 217.964844 C 155.484375 215.820312 157.707031 214.46875 160.125 214.46875 L 160.132812 214.46875 L 170.769531 214.480469 L 155.070312 189.878906 C 154.183594 190.972656 153.253906 192.042969 152.257812 193.066406 C 146.726562 198.730469 139.90625 202.621094 132.449219 204.570312 Z M 132.449219 204.570312 " fill-opacity="1" fill-rule="nonzero"/><path fill="#3b82f6" d="M 120.308594 193.191406 C 119.789062 193.292969 119.324219 193.535156 118.839844 193.761719 C 119.324219 193.535156 119.800781 193.292969 120.308594 193.191406 Z M 120.308594 193.191406 " fill-opacity="1" fill-rule="nonzero"/><path fill="#3b82f6" d="M 126.03125 195.03125 C 126.34375 195.339844 126.683594 195.585938 126.929688 195.96875 C 126.695312 195.609375 126.34375 195.34375 126.03125 195.03125 Z M 126.03125 195.03125 " fill-opacity="1" fill-rule="nonzero"/><path fill="#3b82f6" d="M 121.535156 193.167969 C 121.953125 193.167969 122.363281 193.113281 122.769531 193.191406 C 122.351562 193.113281 121.953125 193.160156 121.535156 193.167969 Z M 121.535156 193.167969 " fill-opacity="1" fill-rule="nonzero"/><path fill="#3b82f6" d="M 124.183594 193.742188 C 124.492188 193.882812 124.820312 193.953125 125.105469 194.140625 C 125.074219 194.121094 125.054688 194.085938 125.027344 194.070312 C 124.765625 193.898438 124.46875 193.867188 124.183594 193.742188 Z M 124.183594 193.742188 " fill-opacity="1" fill-rule="nonzero"/><path fill="#3b82f6" d="M 116.992188 195.085938 C 117.320312 194.757812 117.59375 194.394531 117.980469 194.136719 C 117.597656 194.378906 117.320312 194.753906 116.992188 195.085938 Z M 116.992188 195.085938 " fill-opacity="1" fill-rule="nonzero"/></svg>