<svg xmlns="http://www.w3.org/2000/svg" xmlns:xlink="http://www.w3.org/1999/xlink" width="500" zoomAndPan="magnify" viewBox="0 0 375 374.999991" height="500" preserveAspectRatio="xMidYMid meet" version="1.0"><defs><clipPath id="5d841f80ab"><path d="M 10.546875 80 L 44 80 L 44 94 L 10.546875 94 Z M 10.546875 80 " clip-rule="nonzero"/></clipPath><clipPath id="f4d1d6b119"><path d="M 331 80 L 364.546875 80 L 364.546875 94 L 331 94 Z M 331 80 " clip-rule="nonzero"/></clipPath></defs><g clip-path="url(#5d841f80ab)"><path fill="#3b82f6" d="M 10.53125 80.097656 L 43.300781 80.097656 L 43.300781 93.203125 L 10.53125 93.203125 Z M 10.53125 80.097656 " fill-opacity="1" fill-rule="nonzero"/></g><path fill="#3b82f6" d="M 28.726562 9.261719 L 37.996094 -0.0078125 L 64.515625 26.515625 L 55.25 35.78125 Z M 28.726562 9.261719 " fill-opacity="1" fill-rule="nonzero"/><g clip-path="url(#f4d1d6b119)"><path fill="#3b82f6" d="M 331.652344 80.097656 L 364.421875 80.097656 L 364.421875 93.203125 L 331.652344 93.203125 Z M 331.652344 80.097656 " fill-opacity="1" fill-rule="nonzero"/></g><path fill="#3b82f6" d="M 310.429688 26.519531 L 336.953125 -0.00390625 L 346.21875 9.265625 L 319.699219 35.785156 Z M 310.429688 26.519531 " fill-opacity="1" fill-rule="nonzero"/><path fill="#3b82f6" d="M 148.152344 375.007812 L 115.382812 375.007812 C 108.160156 375.007812 102.277344 369.125 102.277344 361.898438 C 102.277344 350.894531 108.757812 341.894531 119.199219 338.421875 L 121.941406 337.511719 L 121.941406 192.3125 L 135.046875 192.3125 L 135.046875 346.972656 L 123.335938 350.867188 C 118.285156 352.542969 115.390625 356.570312 115.390625 361.90625 L 148.160156 361.90625 C 151.777344 361.90625 154.714844 358.96875 154.714844 355.351562 L 154.714844 250.492188 L 167.824219 250.492188 L 167.824219 355.351562 C 167.824219 366.195312 159.003906 375.011719 148.160156 375.011719 Z M 148.152344 375.007812 " fill-opacity="1" fill-rule="nonzero"/><path fill="#3b82f6" d="M 56.398438 361.898438 L 279.21875 361.898438 L 279.21875 375.007812 L 56.398438 375.007812 Z M 56.398438 361.898438 " fill-opacity="1" fill-rule="nonzero"/><path fill="#3b82f6" d="M 292.332031 361.898438 L 305.4375 361.898438 L 305.4375 375.007812 L 292.332031 375.007812 Z M 292.332031 361.898438 " fill-opacity="1" fill-rule="nonzero"/><path fill="#3b82f6" d="M 233.347656 375.007812 L 202.25 375.007812 C 192.53125 375.007812 184.160156 367.746094 182.785156 358.132812 L 178.832031 330.445312 L 191.808594 328.59375 L 195.761719 356.277344 C 196.21875 359.480469 199.003906 361.898438 202.242188 361.898438 L 233.34375 361.898438 C 233.34375 356.5625 230.445312 352.542969 225.386719 350.859375 L 214.320312 347.179688 L 192.808594 196.648438 L 205.785156 194.792969 L 226.144531 337.300781 L 229.527344 338.421875 C 239.96875 341.902344 246.449219 350.894531 246.449219 361.898438 C 246.449219 369.125 240.566406 375.007812 233.34375 375.007812 Z M 233.347656 375.007812 " fill-opacity="1" fill-rule="nonzero"/><path fill="#3b82f6" d="M 141.597656 93.203125 C 129.164062 93.203125 117.953125 86.246094 112.351562 75.039062 L 105.800781 61.941406 C 103.460938 57.273438 102.277344 52.359375 102.277344 47.328125 C 102.277344 29.261719 116.976562 14.558594 135.046875 14.558594 C 147.476562 14.558594 158.691406 21.515625 164.292969 32.722656 L 170.84375 45.820312 C 173.179688 50.492188 174.367188 55.40625 174.367188 60.433594 C 174.367188 78.503906 159.664062 93.203125 141.597656 93.203125 Z M 135.039062 27.671875 C 124.195312 27.671875 115.375 36.492188 115.375 47.335938 C 115.375 50.308594 116.09375 53.25 117.515625 56.078125 L 124.074219 69.1875 C 127.441406 75.921875 134.160156 80.105469 141.597656 80.105469 C 152.441406 80.105469 161.257812 71.285156 161.257812 60.441406 C 161.257812 57.46875 160.542969 54.527344 159.121094 51.695312 L 152.5625 38.589844 C 149.195312 31.855469 142.476562 27.671875 135.039062 27.671875 Z M 135.039062 27.671875 " fill-opacity="1" fill-rule="nonzero"/><path fill="#3b82f6" d="M 105.554688 191.507812 C 92.910156 191.507812 82.621094 181.214844 82.621094 168.574219 C 82.621094 155.929688 92.910156 145.636719 105.554688 145.636719 C 118.199219 145.636719 128.488281 155.929688 128.488281 168.574219 C 128.488281 181.214844 118.199219 191.507812 105.554688 191.507812 Z M 105.554688 158.738281 C 100.136719 158.738281 95.726562 163.148438 95.726562 168.566406 C 95.726562 173.984375 100.136719 178.394531 105.554688 178.394531 C 110.972656 178.394531 115.382812 173.984375 115.382812 168.566406 C 115.382812 163.148438 110.972656 158.738281 105.554688 158.738281 Z M 105.554688 158.738281 " fill-opacity="1" fill-rule="nonzero"/><path fill="#3b82f6" d="M 236.820312 132.523438 C 227.058594 132.523438 220.242188 125.414062 220.242188 115.238281 C 220.242188 100.546875 235.085938 80.097656 249.707031 80.097656 C 259.371094 80.097656 266.117188 87.390625 266.117188 97.847656 C 266.117188 112.351562 251.355469 132.523438 236.820312 132.523438 Z M 249.707031 93.203125 C 243.441406 93.203125 233.347656 106.796875 233.347656 115.238281 C 233.347656 119.417969 235.78125 119.417969 236.820312 119.417969 C 243.019531 119.417969 253.011719 106.113281 253.011719 97.847656 C 253.011719 93.203125 250.53125 93.203125 249.707031 93.203125 Z M 249.707031 93.203125 " fill-opacity="1" fill-rule="nonzero"/><path fill="#3b82f6" d="M 171.769531 230.828125 C 163.589844 230.828125 155.703125 227.425781 150.136719 221.503906 C 143.578125 214.523438 131.523438 202.820312 111.390625 186.722656 L 119.582031 176.484375 C 140.308594 193.074219 152.835938 205.25 159.683594 212.535156 C 162.785156 215.832031 167.1875 217.726562 171.769531 217.726562 C 178.523438 217.726562 184.546875 213.71875 187.140625 207.519531 C 193.8125 191.488281 208 159.113281 227.992188 122.429688 L 239.496094 128.699219 C 219.800781 164.859375 205.820312 196.753906 199.238281 212.554688 C 194.621094 223.65625 183.839844 230.835938 171.777344 230.835938 Z M 171.769531 230.828125 " fill-opacity="1" fill-rule="nonzero"/><path fill="#3b82f6" d="M 163.058594 169.804688 L 156.625 163.371094 C 142.421875 149.167969 118.339844 134.546875 108.640625 128.917969 C 105.324219 126.984375 101.527344 125.96875 97.667969 125.96875 C 89.367188 125.96875 82.613281 132.722656 82.613281 141.023438 C 82.613281 145.855469 84.964844 150.421875 88.890625 153.246094 L 94.234375 157.128906 L 86.492188 167.699219 L 81.242188 163.882812 C 73.894531 158.609375 69.507812 150.0625 69.507812 141.015625 C 69.507812 125.492188 82.144531 112.855469 97.667969 112.855469 C 103.832031 112.855469 109.902344 114.484375 115.226562 117.570312 C 126.082031 123.875 144.902344 135.484375 159.34375 148.015625 C 181.488281 104.796875 213.351562 52.257812 264.632812 12.445312 C 268.320312 9.574219 272.960938 7.996094 277.699219 7.996094 C 289.386719 7.996094 298.890625 17.496094 298.890625 29.183594 C 298.890625 33.8125 297.34375 38.421875 294.527344 42.15625 C 283.171875 57.199219 271.84375 73.882812 260.855469 91.734375 L 249.691406 84.863281 C 260.898438 66.65625 272.457031 49.640625 284.058594 34.261719 C 285.164062 32.789062 285.78125 30.984375 285.78125 29.183594 C 285.78125 24.726562 282.15625 21.101562 277.699219 21.101562 C 275.867188 21.101562 274.078125 21.699219 272.683594 22.792969 C 220.359375 63.40625 188.789062 118.335938 167.128906 161.65625 L 163.066406 169.785156 Z M 163.058594 169.804688 " fill-opacity="1" fill-rule="nonzero"/><path fill="#3b82f6" d="M 117.046875 125.320312 L 104.988281 120.175781 C 112.644531 102.234375 124.257812 89 139.503906 80.855469 L 145.6875 92.414062 C 132.953125 99.214844 123.597656 109.984375 117.046875 125.320312 Z M 117.046875 125.320312 " fill-opacity="1" fill-rule="nonzero"/><path fill="#3b82f6" d="M 196.328125 96.488281 C 187.71875 89.777344 178.652344 86.648438 167.816406 86.648438 C 164.871094 86.648438 161.90625 86.941406 158.996094 87.527344 L 156.425781 74.671875 C 160.183594 73.921875 164.019531 73.542969 167.816406 73.542969 C 181.542969 73.542969 193.503906 77.671875 204.390625 86.164062 L 196.328125 96.496094 Z M 196.328125 96.488281 " fill-opacity="1" fill-rule="nonzero"/></svg>