<svg xmlns="http://www.w3.org/2000/svg" xmlns:xlink="http://www.w3.org/1999/xlink" width="500" zoomAndPan="magnify" viewBox="0 0 375 374.999991" height="500" preserveAspectRatio="xMidYMid meet" version="1.0"><defs><clipPath id="ccdbeea326"><path d="M 0 206 L 287 206 L 287 364.390625 L 0 364.390625 Z M 0 206 " clip-rule="nonzero"/></clipPath></defs><g clip-path="url(#ccdbeea326)"><path fill="#3b82f6" d="M 262.90625 316.863281 C 252.535156 316.863281 243.773438 323.53125 240.457031 332.769531 L 194.742188 332.769531 L 144.644531 245.636719 C 148.234375 241.457031 150.484375 236.082031 150.484375 230.160156 C 150.484375 216.964844 139.746094 206.226562 126.550781 206.226562 C 116.164062 206.226562 107.386719 212.929688 104.085938 222.199219 L 46.453125 222.199219 C 43.152344 212.929688 34.375 206.226562 23.988281 206.226562 C 10.792969 206.226562 0.0546875 216.964844 0.0546875 230.160156 C 0.0546875 243.355469 10.792969 254.09375 23.988281 254.09375 C 25.503906 254.09375 26.988281 253.917969 28.425781 253.648438 L 83.261719 348.726562 L 113.082031 348.726562 C 113.5625 350.066406 114.121094 351.390625 114.855469 352.667969 C 119.273438 360.339844 127.347656 364.648438 135.628906 364.648438 C 139.699219 364.648438 143.796875 363.628906 147.546875 361.441406 C 153.085938 358.265625 157.058594 353.113281 158.699219 346.9375 C 160.34375 340.765625 159.515625 334.316406 156.324219 328.765625 C 149.734375 317.339844 135.039062 313.433594 123.644531 319.972656 C 118.492188 322.925781 114.964844 327.570312 113.132812 332.769531 L 92.5 332.769531 L 42.195312 245.527344 C 44.027344 243.355469 45.480469 240.882812 46.453125 238.15625 L 104.117188 238.15625 C 107.417969 247.410156 116.195312 254.09375 126.582031 254.09375 C 128.050781 254.09375 129.484375 253.917969 130.890625 253.664062 L 185.554688 348.726562 L 240.472656 348.726562 C 243.757812 358.011719 252.550781 364.730469 262.953125 364.730469 C 276.148438 364.730469 286.886719 353.992188 286.886719 340.796875 C 286.886719 327.601562 276.148438 316.863281 262.953125 316.863281 Z M 127.84375 338.640625 C 128.386719 336.582031 129.710938 334.875 131.542969 333.808594 C 132.804688 333.089844 134.175781 332.753906 135.515625 332.753906 C 138.292969 332.753906 140.988281 334.175781 142.457031 336.726562 C 143.527344 338.578125 143.8125 340.730469 143.253906 342.789062 C 142.714844 344.847656 141.390625 346.554688 139.554688 347.625 C 135.707031 349.828125 130.859375 348.503906 128.65625 344.703125 C 127.601562 342.855469 127.300781 340.699219 127.859375 338.640625 Z M 15.980469 230.160156 C 15.980469 225.773438 19.570312 222.183594 23.957031 222.183594 C 28.34375 222.183594 31.933594 225.773438 31.933594 230.160156 C 31.933594 234.546875 28.34375 238.140625 23.957031 238.140625 C 19.570312 238.140625 15.980469 234.546875 15.980469 230.160156 Z M 118.554688 230.160156 C 118.554688 225.773438 122.148438 222.183594 126.535156 222.183594 C 130.921875 222.183594 134.511719 225.773438 134.511719 230.160156 C 134.511719 234.546875 130.921875 238.140625 126.535156 238.140625 C 122.148438 238.140625 118.554688 234.546875 118.554688 230.160156 Z M 262.90625 348.773438 C 258.519531 348.773438 254.925781 345.183594 254.925781 340.796875 C 254.925781 336.410156 258.519531 332.816406 262.90625 332.816406 C 267.292969 332.816406 270.882812 336.410156 270.882812 340.796875 C 270.882812 345.183594 267.292969 348.773438 262.90625 348.773438 Z M 262.90625 348.773438 " fill-opacity="1" fill-rule="nonzero"/></g><path fill="#3b82f6" d="M 350.453125 165.222656 C 340.066406 165.222656 331.289062 171.90625 327.988281 181.175781 L 189.144531 181.175781 L 223.527344 121.34375 L 280.535156 121.34375 C 283.839844 130.613281 292.613281 137.300781 303 137.300781 C 316.195312 137.300781 326.933594 126.5625 326.933594 113.367188 C 326.933594 100.171875 316.195312 89.433594 303 89.433594 C 292.613281 89.433594 283.839844 96.121094 280.535156 105.390625 L 214.304688 105.390625 L 170.730469 181.175781 L 97.703125 181.175781 C 94.398438 171.90625 85.625 165.222656 75.238281 165.222656 C 62.042969 165.222656 51.304688 175.960938 51.304688 189.15625 C 51.304688 202.351562 62.042969 213.089844 75.238281 213.089844 C 85.625 213.089844 94.398438 206.402344 97.703125 197.132812 L 170.730469 197.132812 L 214.304688 272.921875 L 280.535156 272.921875 C 283.839844 282.175781 292.613281 288.859375 303 288.859375 C 316.195312 288.859375 326.933594 278.121094 326.933594 264.929688 C 326.933594 251.734375 316.195312 240.996094 303 240.996094 C 292.613281 240.996094 283.839844 247.695312 280.535156 256.964844 L 223.542969 256.964844 L 189.160156 197.132812 L 328.003906 197.132812 C 331.304688 206.402344 340.082031 213.089844 350.46875 213.089844 C 363.664062 213.089844 374.402344 202.351562 374.402344 189.15625 C 374.402344 175.960938 363.664062 165.222656 350.46875 165.222656 Z M 302.984375 105.390625 C 307.375 105.390625 310.964844 108.980469 310.964844 113.367188 C 310.964844 117.753906 307.375 121.34375 302.984375 121.34375 C 298.597656 121.34375 295.007812 117.753906 295.007812 113.367188 C 295.007812 108.980469 298.597656 105.390625 302.984375 105.390625 Z M 302.984375 256.949219 C 307.375 256.949219 310.964844 260.539062 310.964844 264.929688 C 310.964844 269.316406 307.375 272.90625 302.984375 272.90625 C 298.597656 272.90625 295.007812 269.316406 295.007812 264.929688 C 295.007812 260.539062 298.597656 256.949219 302.984375 256.949219 Z M 75.238281 197.132812 C 70.851562 197.132812 67.257812 193.542969 67.257812 189.15625 C 67.257812 184.769531 70.851562 181.175781 75.238281 181.175781 C 79.625 181.175781 83.214844 184.769531 83.214844 189.15625 C 83.214844 193.542969 79.625 197.132812 75.238281 197.132812 Z M 350.453125 197.132812 C 346.066406 197.132812 342.476562 193.542969 342.476562 189.15625 C 342.476562 184.769531 346.066406 181.175781 350.453125 181.175781 C 354.839844 181.175781 358.429688 184.769531 358.429688 189.15625 C 358.429688 193.542969 354.839844 197.132812 350.453125 197.132812 Z M 350.453125 197.132812 " fill-opacity="1" fill-rule="nonzero"/><path fill="#3b82f6" d="M 23.957031 172.082031 C 34.328125 172.082031 43.101562 165.414062 46.40625 156.160156 L 104.070312 156.160156 C 107.386719 165.414062 116.148438 172.082031 126.519531 172.082031 C 139.714844 172.082031 150.453125 161.34375 150.453125 148.148438 C 150.453125 142.230469 148.203125 136.871094 144.628906 132.6875 L 194.710938 45.574219 L 240.441406 45.574219 C 243.757812 54.792969 252.519531 61.449219 262.875 61.449219 C 276.070312 61.449219 286.808594 50.710938 286.808594 37.515625 C 286.808594 24.320312 276.070312 13.582031 262.875 13.582031 C 252.453125 13.582031 243.664062 20.316406 240.390625 29.617188 L 185.488281 29.617188 L 130.84375 124.648438 C 129.4375 124.390625 127.984375 124.214844 126.519531 124.214844 C 116.117188 124.214844 107.339844 130.917969 104.035156 140.203125 L 46.40625 140.203125 C 45.433594 137.460938 43.980469 134.972656 42.128906 132.800781 L 92.453125 45.414062 L 113.050781 45.414062 C 114.871094 50.664062 118.429688 55.335938 123.597656 58.335938 C 127.332031 60.492188 131.433594 61.511719 135.484375 61.511719 C 143.78125 61.511719 151.839844 57.203125 156.292969 49.53125 C 162.863281 38.089844 158.921875 23.425781 147.484375 16.835938 C 136.109375 10.292969 121.398438 14.203125 114.792969 25.644531 C 114.074219 26.871094 113.546875 28.164062 113.082031 29.457031 L 83.230469 29.457031 L 28.425781 124.664062 C 26.972656 124.390625 25.488281 124.214844 23.957031 124.214844 C 10.761719 124.214844 0.0234375 134.953125 0.0234375 148.148438 C 0.0234375 161.34375 10.761719 172.082031 23.957031 172.082031 Z M 262.90625 29.539062 C 267.292969 29.539062 270.882812 33.128906 270.882812 37.515625 C 270.882812 41.902344 267.292969 45.492188 262.90625 45.492188 C 258.519531 45.492188 254.925781 41.902344 254.925781 37.515625 C 254.925781 33.128906 258.519531 29.539062 262.90625 29.539062 Z M 128.625 33.605469 C 130.109375 31.054688 132.804688 29.617188 135.582031 29.617188 C 136.9375 29.617188 138.292969 29.953125 139.554688 30.671875 C 143.351562 32.871094 144.660156 37.738281 142.488281 41.566406 C 140.289062 45.347656 135.390625 46.707031 131.574219 44.519531 C 127.761719 42.300781 126.453125 37.417969 128.625 33.605469 Z M 126.535156 140.171875 C 130.921875 140.171875 134.511719 143.761719 134.511719 148.148438 C 134.511719 152.539062 130.921875 156.128906 126.535156 156.128906 C 122.144531 156.128906 118.554688 152.539062 118.554688 148.148438 C 118.554688 143.761719 122.144531 140.171875 126.535156 140.171875 Z M 23.957031 140.171875 C 28.34375 140.171875 31.933594 143.761719 31.933594 148.148438 C 31.933594 152.539062 28.34375 156.128906 23.957031 156.128906 C 19.570312 156.128906 15.980469 152.539062 15.980469 148.148438 C 15.980469 143.761719 19.570312 140.171875 23.957031 140.171875 Z M 23.957031 140.171875 " fill-opacity="1" fill-rule="nonzero"/></svg>