<svg xmlns="http://www.w3.org/2000/svg" xmlns:xlink="http://www.w3.org/1999/xlink" width="500" zoomAndPan="magnify" viewBox="0 0 375 374.999991" height="500" preserveAspectRatio="xMidYMid meet" version="1.0"><defs><clipPath id="35e940517b"><path d="M 0 25.78125 L 375 25.78125 L 375 349.03125 L 0 349.03125 Z M 0 25.78125 " clip-rule="nonzero"/></clipPath></defs><g clip-path="url(#35e940517b)"><path fill="#3b82f6" d="M 374.15625 82.398438 C 373.566406 77.25 371.8125 72.632812 368.941406 68.675781 C 364.839844 63.015625 358.445312 58.816406 350.453125 56.523438 C 344.863281 54.917969 340.324219 54.765625 339.824219 54.753906 L 339.617188 54.75 L 301.074219 54.75 C 300.609375 44.875 299.742188 35.199219 298.5 25.78125 L 76.492188 25.78125 C 75.246094 35.199219 74.378906 44.875 73.917969 54.75 L 35.378906 54.75 L 35.171875 54.753906 C 34.671875 54.765625 30.132812 54.917969 24.542969 56.523438 C 16.550781 58.816406 10.15625 63.015625 6.054688 68.675781 C 3.183594 72.632812 1.429688 77.25 0.839844 82.398438 C 0.222656 87.765625 0.890625 93.757812 2.828125 100.210938 C 3.128906 101.210938 10.414062 125.074219 29.300781 152.777344 C 40.40625 169.066406 53.261719 183.339844 67.503906 195.195312 C 81.257812 206.648438 96.332031 215.847656 112.46875 222.664062 C 125.75 243.140625 141.75 258.269531 159.394531 266.152344 C 157.019531 279.511719 151.582031 302.058594 140.699219 312.9375 L 106.949219 312.9375 L 106.949219 337.410156 L 81.636719 337.410156 L 66.535156 349.21875 L 308.460938 349.21875 L 293.359375 337.410156 L 268.046875 337.410156 L 268.046875 312.9375 L 234.296875 312.9375 C 223.414062 302.058594 217.976562 279.511719 215.605469 266.152344 C 233.246094 258.269531 249.246094 243.140625 262.527344 222.664062 C 278.664062 215.847656 293.738281 206.648438 307.492188 195.195312 C 321.734375 183.335938 334.589844 169.066406 345.695312 152.777344 C 364.582031 125.074219 371.867188 101.210938 372.167969 100.210938 C 374.109375 93.765625 374.777344 87.773438 374.164062 82.40625 Z M 43.5625 143.730469 C 26 118.121094 19.058594 95.570312 18.992188 95.359375 C 16.78125 87.984375 17.011719 82.355469 19.683594 78.632812 C 23.535156 73.261719 32.332031 71.765625 35.53125 71.628906 L 73.523438 71.628906 C 73.539062 118.878906 82.816406 162.3125 98.335938 196.59375 C 77.316406 183.894531 58.980469 166.210938 43.566406 143.734375 Z M 356 95.363281 C 355.933594 95.574219 348.992188 118.125 331.429688 143.734375 C 316.015625 166.210938 297.675781 183.894531 276.65625 196.597656 C 292.175781 162.316406 301.453125 118.886719 301.46875 71.632812 L 339.460938 71.632812 C 342.660156 71.769531 351.457031 73.269531 355.308594 78.636719 C 357.984375 82.355469 358.214844 87.984375 356.003906 95.359375 Z M 356 95.363281 " fill-opacity="1" fill-rule="nonzero"/></g></svg>