<svg xmlns="http://www.w3.org/2000/svg" xmlns:xlink="http://www.w3.org/1999/xlink" width="500" zoomAndPan="magnify" viewBox="0 0 375 374.999991" height="500" preserveAspectRatio="xMidYMid meet" version="1.0"><defs><clipPath id="e9c77ef256"><path d="M 0 68.105469 L 375 68.105469 L 375 306.605469 L 0 306.605469 Z M 0 68.105469 " clip-rule="nonzero"/></clipPath></defs><g clip-path="url(#e9c77ef256)"><path fill="#3b82f6" d="M 187.496094 132 C 179.296875 132 172.871094 127.445312 172.871094 121.636719 C 172.871094 120.097656 174.113281 118.851562 175.65625 118.851562 C 177.191406 118.851562 178.4375 120.097656 178.4375 121.636719 C 178.4375 123.902344 182.3125 126.429688 187.496094 126.429688 C 189.035156 126.429688 190.28125 127.675781 190.28125 129.214844 C 190.28125 130.753906 189.035156 132 187.496094 132 Z M 373.402344 118.066406 L 191.019531 68.625 C 189.078125 68.097656 185.933594 68.097656 183.996094 68.625 L 1.589844 118.066406 C 0.527344 118.355469 0.0390625 118.816406 0.0976562 119.316406 C 0.0976562 119.316406 0.09375 119.316406 0.09375 119.3125 C 0.0859375 119.378906 0.0898438 119.441406 0.09375 119.507812 C 0.0859375 119.574219 0.0898438 119.636719 0.0976562 119.699219 C 0.0859375 119.761719 0.0898438 119.824219 0.09375 119.890625 C 0.0859375 119.953125 0.0898438 120.019531 0.09375 120.085938 C 0.0859375 120.148438 0.0898438 120.214844 0.0976562 120.28125 C 0.0859375 120.339844 0.0898438 120.402344 0.0976562 120.46875 C 0.0859375 120.535156 0.0898438 120.597656 0.09375 120.664062 C 0.0859375 120.730469 0.0898438 120.789062 0.0976562 120.859375 C 0.0859375 120.917969 0.0898438 120.984375 0.0976562 121.050781 C 0.0859375 121.113281 0.0898438 121.175781 0.0976562 121.242188 C 0.0859375 121.304688 0.0898438 121.371094 0.0976562 121.433594 C 0.0859375 121.5 0.0898438 121.558594 0.0976562 121.625 C 0.0859375 121.683594 0.0898438 121.753906 0.09375 121.816406 C 0.0859375 121.882812 0.0898438 121.945312 0.09375 122.011719 C 0.0859375 122.074219 0.0898438 122.136719 0.0976562 122.199219 C 0.0859375 122.265625 0.0898438 122.332031 0.09375 122.394531 C 0.0859375 122.460938 0.0898438 122.523438 0.0976562 122.585938 C 0.0859375 122.648438 0.0898438 122.714844 0.09375 122.78125 C 0.0859375 122.84375 0.0898438 122.910156 0.09375 122.976562 C 0.0859375 123.039062 0.0898438 123.101562 0.0976562 123.167969 C 0.0859375 123.230469 0.0898438 123.292969 0.0976562 123.359375 C 0.0859375 123.421875 0.0898438 123.488281 0.0976562 123.550781 C 0.0078125 124.019531 0.425781 124.53125 1.378906 124.976562 L 70.535156 157.007812 L 170.597656 132 L 84.789062 163.609375 L 84.789062 252.558594 C 81.191406 253.96875 78.636719 257.449219 78.636719 261.546875 C 78.636719 263.828125 79.460938 265.902344 80.785156 267.550781 C 71.746094 273.195312 65.25 288.644531 65.25 306.875 L 111.382812 306.875 C 111.382812 288.644531 104.882812 273.195312 95.847656 267.550781 C 97.167969 265.902344 97.992188 263.828125 97.992188 261.546875 C 97.992188 257.449219 95.4375 253.96875 91.84375 252.558594 L 91.84375 166.875 L 184.210938 209.664062 C 186.035156 210.515625 188.988281 210.515625 190.808594 209.664062 L 373.621094 124.976562 C 374.574219 124.53125 374.988281 124.019531 374.902344 123.550781 C 374.90625 123.488281 374.910156 123.421875 374.902344 123.359375 C 374.90625 123.296875 374.910156 123.230469 374.902344 123.167969 C 374.90625 123.101562 374.910156 123.039062 374.902344 122.972656 C 374.90625 122.910156 374.910156 122.84375 374.902344 122.78125 C 374.90625 122.714844 374.910156 122.652344 374.902344 122.585938 C 374.90625 122.523438 374.910156 122.460938 374.902344 122.394531 C 374.90625 122.332031 374.910156 122.265625 374.902344 122.203125 C 374.90625 122.140625 374.910156 122.074219 374.902344 122.007812 C 374.90625 121.945312 374.910156 121.882812 374.902344 121.816406 C 374.90625 121.753906 374.910156 121.691406 374.902344 121.625 C 374.90625 121.5625 374.910156 121.5 374.902344 121.433594 C 374.90625 121.371094 374.910156 121.304688 374.902344 121.242188 C 374.90625 121.175781 374.910156 121.113281 374.902344 121.050781 C 374.90625 120.984375 374.910156 120.917969 374.902344 120.859375 C 374.90625 120.789062 374.910156 120.726562 374.902344 120.664062 C 374.90625 120.597656 374.910156 120.535156 374.902344 120.472656 C 374.90625 120.40625 374.910156 120.339844 374.902344 120.28125 C 374.90625 120.214844 374.910156 120.148438 374.902344 120.085938 C 374.90625 120.019531 374.910156 119.957031 374.902344 119.894531 C 374.90625 119.824219 374.910156 119.765625 374.902344 119.699219 C 374.90625 119.632812 374.910156 119.570312 374.902344 119.507812 C 374.90625 119.441406 374.910156 119.382812 374.902344 119.320312 C 374.957031 118.820312 374.46875 118.355469 373.402344 118.066406 " fill-opacity="1" fill-rule="nonzero"/></g><path fill="#3b82f6" d="M 184.210938 217.304688 L 98.496094 177.597656 L 98.496094 243.148438 C 116.828125 254.175781 149.8125 261.546875 187.496094 261.546875 C 245.113281 261.546875 291.828125 244.339844 291.828125 223.113281 L 291.828125 170.507812 L 190.808594 217.304688 C 188.988281 218.15625 186.03125 218.15625 184.210938 217.304688 " fill-opacity="1" fill-rule="nonzero"/></svg>