<svg xmlns="http://www.w3.org/2000/svg" xmlns:xlink="http://www.w3.org/1999/xlink" width="500" zoomAndPan="magnify" viewBox="0 0 375 374.999991" height="500" preserveAspectRatio="xMidYMid meet" version="1.0"><defs><g/></defs><path stroke-linecap="butt" transform="matrix(4.172586, 0, 0, 4.172586, 37.500002, -31.212079)" fill="none" stroke-linejoin="miter" d="M 5.628253 80.67191 L 0.258382 80.67191 L 23.388333 21.829884 L 28.8228 21.829884 Z M 37.362542 69.026892 L 37.362542 63.98 L 66.443725 52.043833 L 37.362542 40.0749 L 37.362542 35.028008 L 72.946361 50.005791 L 72.946361 54.049109 Z M 37.362542 69.026892 " stroke="#00a2ff" stroke-width="1.987575" stroke-opacity="1" stroke-miterlimit="4"/><g fill="#01a2ff" fill-opacity="1"><g transform="translate(37.500002, 265.041558)"><g><path d="M 23.484375 40.359375 L 1.078125 40.359375 L 97.59375 -205.171875 L 120.265625 -205.171875 Z M 23.484375 40.359375 "/></g></g><g transform="translate(171.262672, 265.041558)"><g><path d="M 22.140625 -8.234375 L 22.140625 -29.296875 L 143.484375 -79.09375 L 22.140625 -129.046875 L 22.140625 -150.09375 L 170.609375 -87.59375 L 170.609375 -70.734375 Z M 22.140625 -8.234375 "/></g></g></g></svg>