<svg xmlns="http://www.w3.org/2000/svg" xmlns:xlink="http://www.w3.org/1999/xlink" width="500" zoomAndPan="magnify" viewBox="0 0 375 374.999991" height="500" preserveAspectRatio="xMidYMid meet" version="1.0"><defs><clipPath id="f1ccfe8b10"><path d="M 1 50.15625 L 373 50.15625 L 373 324.65625 L 1 324.65625 Z M 1 50.15625 " clip-rule="nonzero"/></clipPath></defs><g clip-path="url(#f1ccfe8b10)"><path fill="#000000" d="M 19.222656 324.78125 L 297.992188 324.78125 C 305.542969 324.78125 312.097656 319.957031 314.699219 313.28125 L 371.242188 168.859375 C 373.472656 163.292969 372.730469 156.988281 369.386719 152.164062 C 366.046875 147.21875 360.480469 144.375 354.539062 144.375 L 315.933594 144.375 L 315.933594 107.777344 C 315.933594 97.882812 307.894531 89.847656 297.992188 89.847656 L 166.34375 89.847656 L 134.171875 55.71875 C 130.707031 52.132812 126.003906 50.03125 121.054688 50.03125 L 19.222656 50.03125 C 9.324219 50.03125 1.28125 58.070312 1.28125 68.085938 L 1.28125 306.726562 C 1.28125 316.742188 9.324219 324.78125 19.222656 324.78125 Z M 37.164062 86.015625 L 113.261719 86.015625 L 145.554688 120.140625 C 148.894531 123.726562 153.722656 125.828125 158.546875 125.828125 L 280.050781 125.828125 L 280.050781 144.375 L 75.769531 144.375 C 68.34375 144.375 61.789062 148.828125 58.941406 155.753906 L 37.164062 211.394531 Z M 37.164062 86.015625 " fill-opacity="1" fill-rule="nonzero"/></g></svg>