<svg xmlns="http://www.w3.org/2000/svg" xmlns:xlink="http://www.w3.org/1999/xlink" width="500" zoomAndPan="magnify" viewBox="0 0 375 374.999991" height="500" preserveAspectRatio="xMidYMid meet" version="1.0"><defs><clipPath id="d347951ac0"><path d="M 1 12.160156 L 375 12.160156 L 375 86 L 1 86 Z M 1 12.160156 " clip-rule="nonzero"/></clipPath><clipPath id="399d973da5"><path d="M 0 148 L 375 148 L 375 363.160156 L 0 363.160156 Z M 0 148 " clip-rule="nonzero"/></clipPath></defs><path fill="#3b82f6" d="M 1.304688 103.183594 L 1.304688 358.628906 L 374.042969 358.628906 L 374.042969 103.183594 Z M 295.226562 222.085938 L 327.089844 222.085938 C 331.960938 222.085938 335.90625 226.042969 335.90625 230.898438 C 335.90625 235.769531 331.960938 239.714844 327.089844 239.714844 L 295.226562 239.714844 C 290.355469 239.714844 286.410156 235.769531 286.410156 230.898438 C 286.410156 226.042969 290.355469 222.085938 295.226562 222.085938 Z M 229.953125 181.515625 L 252.253906 136 C 254.402344 131.636719 259.679688 129.828125 264.054688 131.964844 C 268.417969 134.113281 270.222656 139.390625 268.085938 143.765625 L 245.773438 189.273438 C 244.242188 192.402344 241.113281 194.210938 237.851562 194.210938 C 236.550781 194.210938 235.230469 193.921875 233.984375 193.304688 C 229.609375 191.167969 227.804688 185.890625 229.953125 181.515625 Z M 268.992188 276.417969 C 268.992188 281.289062 265.035156 285.234375 260.175781 285.234375 L 226.710938 285.234375 C 221.839844 285.234375 217.898438 281.289062 217.898438 276.417969 C 217.898438 271.546875 221.84375 267.605469 226.710938 267.605469 L 260.175781 267.605469 C 265.035156 267.601562 268.992188 271.546875 268.992188 276.417969 Z M 215.5625 222.085938 L 237.863281 222.085938 C 242.734375 222.085938 246.675781 226.042969 246.675781 230.898438 C 246.675781 235.769531 242.730469 239.714844 237.863281 239.714844 L 215.5625 239.714844 C 210.691406 239.714844 206.746094 235.769531 206.746094 230.898438 C 206.746094 226.042969 210.691406 222.085938 215.5625 222.085938 Z M 154.828125 155.347656 L 188.292969 132.59375 C 192.3125 129.859375 197.800781 130.894531 200.542969 134.929688 C 203.277344 138.949219 202.230469 144.4375 198.207031 147.171875 L 175.464844 162.640625 L 198.207031 178.097656 C 202.230469 180.84375 203.277344 186.320312 200.542969 190.351562 C 198.835938 192.851562 196.058594 194.207031 193.238281 194.207031 C 191.53125 194.207031 189.8125 193.710938 188.292969 192.675781 L 154.828125 169.921875 C 152.414062 168.28125 150.972656 165.558594 150.972656 162.636719 C 150.96875 159.722656 152.414062 156.988281 154.828125 155.347656 Z M 137.484375 222.085938 L 170.945312 222.085938 C 175.804688 222.085938 179.761719 226.042969 179.761719 230.898438 C 179.761719 235.769531 175.804688 239.714844 170.945312 239.714844 L 137.484375 239.714844 C 132.613281 239.714844 128.667969 235.769531 128.667969 230.898438 C 128.667969 226.042969 132.613281 222.085938 137.484375 222.085938 Z M 137.484375 267.601562 L 172.535156 267.601562 C 177.40625 267.601562 181.347656 271.546875 181.347656 276.417969 C 181.347656 281.289062 177.402344 285.234375 172.535156 285.234375 L 137.484375 285.234375 C 132.613281 285.234375 128.667969 281.289062 128.667969 276.417969 C 128.667969 271.546875 132.613281 267.601562 137.484375 267.601562 Z M 92.871094 330.738281 L 37.105469 330.738281 C 32.234375 330.738281 28.289062 326.792969 28.289062 321.925781 C 28.289062 317.066406 32.234375 313.109375 37.105469 313.109375 L 92.871094 313.109375 C 97.742188 313.109375 101.683594 317.066406 101.683594 321.925781 C 101.683594 326.796875 97.742188 330.738281 92.871094 330.738281 Z M 92.871094 285.234375 L 37.105469 285.234375 C 32.234375 285.234375 28.289062 281.289062 28.289062 276.417969 C 28.289062 271.546875 32.234375 267.605469 37.105469 267.605469 L 92.871094 267.605469 C 97.742188 267.605469 101.683594 271.550781 101.683594 276.417969 C 101.683594 281.289062 97.742188 285.234375 92.871094 285.234375 Z M 92.871094 239.714844 L 37.105469 239.714844 C 32.234375 239.714844 28.289062 235.769531 28.289062 230.902344 C 28.289062 226.042969 32.234375 222.085938 37.105469 222.085938 L 92.871094 222.085938 C 97.742188 222.085938 101.683594 226.042969 101.683594 230.902344 C 101.683594 235.769531 97.742188 239.714844 92.871094 239.714844 Z M 112.835938 185.394531 C 112.835938 190.265625 108.890625 194.207031 104.019531 194.207031 L 37.105469 194.207031 C 32.234375 194.207031 28.289062 190.261719 28.289062 185.394531 L 28.289062 139.886719 C 28.289062 135.015625 32.234375 131.074219 37.105469 131.074219 L 104.019531 131.074219 C 108.890625 131.074219 112.835938 135.019531 112.835938 139.886719 Z M 338.242188 330.738281 L 137.484375 330.738281 C 132.613281 330.738281 128.667969 326.792969 128.667969 321.925781 C 128.667969 317.066406 132.613281 313.109375 137.484375 313.109375 L 338.242188 313.109375 C 343.113281 313.109375 347.054688 317.066406 347.054688 321.925781 C 347.054688 326.796875 343.113281 330.738281 338.242188 330.738281 Z M 338.242188 285.234375 L 304.789062 285.234375 C 299.917969 285.234375 295.976562 281.289062 295.976562 276.417969 C 295.976562 271.546875 299.921875 267.605469 304.789062 267.605469 L 338.242188 267.605469 C 343.113281 267.605469 347.054688 271.550781 347.054688 276.417969 C 347.054688 281.289062 343.113281 285.234375 338.242188 285.234375 Z M 343.199219 169.925781 L 309.746094 192.675781 C 308.226562 193.714844 306.496094 194.210938 304.789062 194.210938 C 301.96875 194.210938 299.203125 192.855469 297.496094 190.351562 C 294.761719 186.320312 295.796875 180.84375 299.832031 178.101562 L 322.574219 162.640625 L 299.832031 147.171875 C 295.796875 144.441406 294.761719 138.953125 297.496094 134.929688 C 300.238281 130.898438 305.714844 129.863281 309.746094 132.59375 L 343.199219 155.347656 C 345.613281 156.988281 347.054688 159.722656 347.054688 162.640625 C 347.054688 165.5625 345.613281 168.28125 343.199219 169.925781 Z M 343.199219 169.925781 " fill-opacity="1" fill-rule="nonzero"/><g clip-path="url(#d347951ac0)"><path fill="#3b82f6" d="M 1.304688 12.160156 L 1.304688 85.554688 L 374.042969 85.554688 L 374.042969 12.160156 Z M 45.742188 50.582031 C 45.632812 51.144531 45.46875 51.695312 45.238281 52.222656 C 45.015625 52.765625 44.753906 53.269531 44.433594 53.757812 C 44.113281 54.230469 43.738281 54.683594 43.328125 55.089844 C 42.921875 55.496094 42.480469 55.871094 41.996094 56.191406 C 41.511719 56.5 41.003906 56.777344 40.476562 56.996094 C 39.933594 57.214844 39.382812 57.394531 38.824219 57.503906 C 38.25 57.613281 37.675781 57.667969 37.105469 57.667969 C 36.53125 57.667969 35.945312 57.613281 35.375 57.503906 C 34.8125 57.394531 34.261719 57.21875 33.730469 56.996094 C 33.191406 56.777344 32.6875 56.5 32.210938 56.191406 C 31.726562 55.871094 31.273438 55.496094 30.867188 55.089844 C 30.460938 54.683594 30.097656 54.230469 29.765625 53.757812 C 29.457031 53.273438 29.183594 52.765625 28.960938 52.222656 C 28.742188 51.695312 28.574219 51.144531 28.453125 50.582031 C 28.34375 50.007812 28.289062 49.4375 28.289062 48.863281 C 28.289062 48.28125 28.34375 47.707031 28.453125 47.132812 C 28.574219 46.570312 28.738281 46.019531 28.960938 45.492188 C 29.179688 44.953125 29.457031 44.445312 29.765625 43.960938 C 30.097656 43.484375 30.460938 43.035156 30.867188 42.625 C 31.277344 42.21875 31.726562 41.84375 32.210938 41.523438 C 32.6875 41.214844 33.191406 40.941406 33.730469 40.71875 C 34.261719 40.5 34.8125 40.324219 35.375 40.210938 C 36.507812 39.980469 37.6875 39.980469 38.824219 40.210938 C 39.382812 40.324219 39.933594 40.5 40.476562 40.71875 C 41.003906 40.941406 41.511719 41.214844 41.996094 41.523438 C 42.480469 41.84375 42.921875 42.21875 43.328125 42.625 C 43.738281 43.035156 44.113281 43.484375 44.433594 43.960938 C 44.75 44.445312 45.015625 44.953125 45.238281 45.492188 C 45.46875 46.019531 45.632812 46.570312 45.742188 47.132812 C 45.863281 47.707031 45.921875 48.277344 45.921875 48.863281 C 45.917969 49.4375 45.863281 50.007812 45.742188 50.582031 Z M 87.945312 55.089844 C 87.535156 55.496094 87.097656 55.871094 86.609375 56.191406 C 86.125 56.511719 85.621094 56.773438 85.089844 56.996094 C 84.550781 57.214844 84 57.390625 83.4375 57.503906 C 82.863281 57.613281 82.292969 57.667969 81.71875 57.667969 C 81.144531 57.667969 80.5625 57.613281 79.988281 57.503906 C 79.425781 57.390625 78.875 57.214844 78.347656 56.996094 C 77.808594 56.777344 77.300781 56.511719 76.828125 56.191406 C 76.34375 55.871094 75.890625 55.496094 75.484375 55.089844 C 73.839844 53.445312 72.902344 51.175781 72.902344 48.863281 C 72.902344 46.539062 73.839844 44.269531 75.484375 42.625 C 75.890625 42.21875 76.34375 41.84375 76.828125 41.523438 C 77.300781 41.214844 77.808594 40.941406 78.347656 40.71875 C 78.875 40.5 79.425781 40.324219 79.988281 40.210938 C 81.132812 39.980469 82.300781 39.980469 83.4375 40.210938 C 84 40.324219 84.550781 40.5 85.089844 40.71875 C 85.621094 40.941406 86.125 41.214844 86.609375 41.523438 C 87.09375 41.84375 87.535156 42.21875 87.945312 42.625 C 89.585938 44.269531 90.535156 46.539062 90.535156 48.863281 C 90.535156 51.179688 89.585938 53.445312 87.945312 55.089844 Z M 134.972656 50.582031 C 134.859375 51.144531 134.683594 51.695312 134.464844 52.234375 C 134.242188 52.765625 133.980469 53.273438 133.660156 53.757812 C 133.339844 54.230469 132.964844 54.679688 132.558594 55.089844 C 132.160156 55.496094 131.710938 55.871094 131.222656 56.191406 C 130.738281 56.5 130.230469 56.777344 129.703125 56.996094 C 129.164062 57.214844 128.613281 57.394531 128.050781 57.503906 C 127.476562 57.613281 126.90625 57.667969 126.332031 57.667969 C 125.757812 57.667969 125.175781 57.613281 124.601562 57.503906 C 124.039062 57.394531 123.488281 57.21875 122.960938 56.996094 C 122.417969 56.777344 121.914062 56.5 121.4375 56.191406 C 120.953125 55.871094 120.503906 55.496094 120.09375 55.089844 C 119.6875 54.679688 119.324219 54.230469 118.992188 53.757812 C 118.683594 53.273438 118.410156 52.765625 118.1875 52.234375 C 117.96875 51.695312 117.804688 51.144531 117.679688 50.582031 C 117.570312 50.007812 117.515625 49.4375 117.515625 48.863281 C 117.515625 48.28125 117.570312 47.707031 117.679688 47.132812 C 117.800781 46.570312 117.96875 46.019531 118.1875 45.480469 C 118.410156 44.953125 118.683594 44.445312 118.992188 43.960938 C 119.324219 43.484375 119.6875 43.035156 120.09375 42.625 C 120.503906 42.21875 120.953125 41.84375 121.4375 41.523438 C 121.914062 41.214844 122.417969 40.941406 122.960938 40.71875 C 123.488281 40.5 124.039062 40.324219 124.601562 40.210938 C 125.746094 39.980469 126.914062 39.980469 128.050781 40.210938 C 128.613281 40.324219 129.164062 40.5 129.703125 40.71875 C 130.230469 40.941406 130.738281 41.214844 131.222656 41.523438 C 131.707031 41.84375 132.160156 42.21875 132.558594 42.625 C 132.964844 43.035156 133.339844 43.484375 133.660156 43.960938 C 133.980469 44.445312 134.242188 44.953125 134.464844 45.480469 C 134.683594 46.019531 134.859375 46.570312 134.972656 47.132812 C 135.082031 47.707031 135.148438 48.277344 135.148438 48.863281 C 135.148438 49.4375 135.082031 50.007812 134.972656 50.582031 Z M 338.242188 57.679688 L 182.097656 57.679688 C 177.226562 57.679688 173.285156 53.722656 173.285156 48.863281 C 173.285156 43.992188 177.230469 40.050781 182.097656 40.050781 L 338.242188 40.050781 C 343.113281 40.050781 347.054688 43.996094 347.054688 48.863281 C 347.054688 53.722656 343.113281 57.679688 338.242188 57.679688 Z M 338.242188 57.679688 " fill-opacity="1" fill-rule="nonzero"/></g><path fill="#3b82f6" d="M 45.917969 148.703125 L 95.207031 148.703125 L 95.207031 176.578125 L 45.917969 176.578125 Z M 45.917969 148.703125 " fill-opacity="1" fill-rule="nonzero"/><g clip-path="url(#399d973da5)"><path fill="#3b82f6" d="M 418.984375 148.515625 L 418.984375 404.332031 L -43.640625 404.332031 L -43.640625 148.515625 L -16.324219 148.515625 L -16.324219 367.441406 C -16.324219 372.3125 -12.378906 376.257812 -7.507812 376.257812 L 382.855469 376.257812 C 387.726562 376.257812 391.671875 372.3125 391.671875 367.441406 L 391.671875 148.515625 Z M 418.984375 148.515625 " fill-opacity="1" fill-rule="nonzero"/></g></svg>