<svg xmlns="http://www.w3.org/2000/svg" xmlns:xlink="http://www.w3.org/1999/xlink" width="500" zoomAndPan="magnify" viewBox="0 0 375 374.999991" height="500" preserveAspectRatio="xMidYMid meet" version="1.0"><defs><clipPath id="8a1a42f107"><path d="M 1 24 L 375 24 L 375 342.699219 L 1 342.699219 Z M 1 24 " clip-rule="nonzero"/></clipPath></defs><path fill="#3b82f6" d="M 14.597656 130.238281 C 13.726562 130.238281 12.867188 130.152344 12.015625 129.984375 C 11.160156 129.8125 10.332031 129.5625 9.53125 129.230469 C 8.726562 128.898438 7.964844 128.488281 7.242188 128.007812 C 6.519531 127.523438 5.851562 126.976562 5.234375 126.359375 C 4.621094 125.746094 4.074219 125.078125 3.589844 124.355469 C 3.105469 123.632812 2.699219 122.867188 2.367188 122.066406 C 2.035156 121.261719 1.78125 120.433594 1.613281 119.582031 C 1.445312 118.730469 1.359375 117.871094 1.359375 117 C 1.359375 116.128906 1.445312 115.269531 1.613281 114.417969 C 1.78125 113.566406 2.035156 112.738281 2.367188 111.933594 C 2.699219 111.132812 3.105469 110.367188 3.589844 109.644531 C 4.074219 108.921875 4.621094 108.253906 5.234375 107.640625 C 5.851562 107.023438 6.519531 106.476562 7.242188 105.992188 C 7.964844 105.511719 8.726562 105.101562 9.53125 104.769531 C 10.332031 104.4375 11.160156 104.1875 12.015625 104.015625 C 12.867188 103.847656 13.726562 103.761719 14.597656 103.761719 L 324.601562 103.761719 C 325.472656 103.761719 326.332031 103.847656 327.183594 104.015625 C 328.039062 104.1875 328.863281 104.4375 329.667969 104.769531 C 330.472656 105.101562 331.234375 105.511719 331.957031 105.992188 C 332.679688 106.476562 333.347656 107.023438 333.960938 107.640625 C 334.578125 108.253906 335.125 108.921875 335.609375 109.644531 C 336.089844 110.367188 336.5 111.132812 336.832031 111.933594 C 337.164062 112.738281 337.414062 113.566406 337.585938 114.417969 C 337.753906 115.269531 337.839844 116.128906 337.839844 117 C 337.839844 117.871094 337.753906 118.730469 337.585938 119.582031 C 337.414062 120.433594 337.164062 121.261719 336.832031 122.066406 C 336.5 122.867188 336.089844 123.632812 335.609375 124.355469 C 335.125 125.078125 334.578125 125.746094 333.960938 126.359375 C 333.347656 126.976562 332.679688 127.523438 331.957031 128.007812 C 331.234375 128.488281 330.472656 128.898438 329.667969 129.230469 C 328.863281 129.5625 328.039062 129.8125 327.183594 129.984375 C 326.332031 130.152344 325.472656 130.238281 324.601562 130.238281 Z M 14.597656 130.238281 " fill-opacity="1" fill-rule="nonzero"/><path fill="#3b82f6" d="M 67.804688 90.4375 C 66.925781 90.46875 66.050781 90.410156 65.183594 90.261719 C 64.316406 90.109375 63.476562 89.875 62.65625 89.554688 C 61.835938 89.234375 61.058594 88.832031 60.324219 88.351562 C 59.585938 87.871094 58.90625 87.320312 58.28125 86.699219 C 57.65625 86.078125 57.101562 85.402344 56.617188 84.667969 C 56.132812 83.9375 55.726562 83.160156 55.398438 82.34375 C 55.070312 81.527344 54.832031 80.6875 54.675781 79.820312 C 54.523438 78.953125 54.457031 78.082031 54.480469 77.203125 C 54.503906 75.445312 54.84375 73.753906 55.492188 72.121094 C 56.144531 70.492188 57.070312 69.035156 58.261719 67.746094 L 60.367188 66.15625 C 61.0625 65.601562 61.835938 65.199219 62.691406 64.953125 C 63.5 64.601562 64.328125 64.316406 65.183594 64.09375 C 66.929688 63.703125 68.679688 63.703125 70.425781 64.09375 C 71.277344 64.320312 72.109375 64.609375 72.917969 64.953125 C 73.773438 65.199219 74.546875 65.601562 75.238281 66.15625 C 75.839844 66.671875 76.570312 67.144531 77.214844 67.746094 C 78.429688 68.996094 79.359375 70.429688 80.011719 72.042969 C 80.753906 73.636719 81.128906 75.3125 81.128906 77.074219 C 81.128906 78.832031 80.753906 80.507812 80.011719 82.101562 C 79.371094 83.722656 78.4375 85.15625 77.214844 86.398438 C 75.941406 87.617188 74.488281 88.558594 72.855469 89.21875 C 71.222656 89.878906 69.523438 90.214844 67.761719 90.222656 Z M 67.804688 90.4375 " fill-opacity="1" fill-rule="nonzero"/><path fill="#3b82f6" d="M 107.859375 90.4375 C 106.09375 90.417969 104.390625 90.078125 102.753906 89.417969 C 101.113281 88.757812 99.652344 87.824219 98.363281 86.613281 C 97.128906 85.355469 96.171875 83.914062 95.496094 82.285156 C 94.820312 80.660156 94.472656 78.964844 94.449219 77.203125 C 94.535156 75.445312 94.914062 73.757812 95.585938 72.132812 C 96.257812 70.511719 97.183594 69.046875 98.363281 67.746094 C 99.621094 66.546875 101.050781 65.613281 102.660156 64.953125 C 103.882812 64.460938 105.152344 64.152344 106.464844 64.023438 C 107.777344 63.894531 109.082031 63.957031 110.375 64.203125 C 111.671875 64.449219 112.90625 64.875 114.078125 65.480469 C 115.253906 66.082031 116.316406 66.835938 117.273438 67.746094 C 118.425781 69.019531 119.328125 70.453125 119.980469 72.042969 C 120.769531 73.628906 121.128906 75.304688 121.054688 77.074219 C 121.019531 78.820312 120.675781 80.503906 120.027344 82.125 C 119.375 83.746094 118.457031 85.199219 117.273438 86.484375 C 115.980469 87.675781 114.519531 88.597656 112.894531 89.257812 C 111.265625 89.917969 109.574219 90.265625 107.816406 90.308594 Z M 107.859375 90.4375 " fill-opacity="1" fill-rule="nonzero"/><path fill="#3b82f6" d="M 147.789062 90.4375 C 146.03125 90.433594 144.355469 90.058594 142.757812 89.320312 C 141.160156 88.679688 139.730469 87.777344 138.460938 86.613281 C 137.253906 85.355469 136.308594 83.921875 135.625 82.316406 C 134.949219 80.707031 134.578125 79.03125 134.507812 77.289062 C 134.578125 75.542969 134.949219 73.867188 135.625 72.257812 C 136.292969 70.644531 137.238281 69.210938 138.460938 67.960938 C 139.101562 67.375 139.789062 66.855469 140.527344 66.398438 C 141.265625 65.941406 142.035156 65.554688 142.84375 65.238281 C 143.652344 64.925781 144.484375 64.6875 145.335938 64.53125 C 146.1875 64.371094 147.050781 64.289062 147.917969 64.289062 C 148.785156 64.289062 149.644531 64.371094 150.496094 64.53125 C 151.347656 64.6875 152.179688 64.925781 152.988281 65.238281 C 153.796875 65.554688 154.570312 65.941406 155.304688 66.398438 C 156.042969 66.855469 156.730469 67.375 157.371094 67.960938 C 158.597656 69.210938 159.542969 70.644531 160.207031 72.257812 C 160.695312 73.472656 160.996094 74.726562 161.117188 76.027344 C 161.242188 77.328125 161.175781 78.617188 160.921875 79.898438 C 160.671875 81.179688 160.242188 82.398438 159.640625 83.554688 C 159.035156 84.714844 158.28125 85.761719 157.371094 86.699219 C 156.085938 87.898438 154.628906 88.828125 153 89.488281 C 151.367188 90.148438 149.675781 90.492188 147.917969 90.523438 Z M 147.789062 90.4375 " fill-opacity="1" fill-rule="nonzero"/><g clip-path="url(#8a1a42f107)"><path fill="#3b82f6" d="M 1.1875 152.027344 C 1.1875 151.152344 1.273438 150.285156 1.445312 149.429688 C 1.613281 148.570312 1.867188 147.738281 2.203125 146.929688 C 2.539062 146.125 2.949219 145.355469 3.433594 144.628906 C 3.921875 143.902344 4.472656 143.230469 5.089844 142.609375 C 5.710938 141.992188 6.382812 141.441406 7.109375 140.953125 C 7.835938 140.46875 8.605469 140.058594 9.414062 139.722656 C 10.222656 139.390625 11.054688 139.136719 11.910156 138.964844 C 12.769531 138.796875 13.636719 138.710938 14.511719 138.710938 C 15.386719 138.710938 16.25 138.796875 17.109375 138.964844 C 17.964844 139.136719 18.800781 139.390625 19.609375 139.722656 C 20.414062 140.058594 21.183594 140.46875 21.910156 140.953125 C 22.636719 141.441406 23.3125 141.992188 23.929688 142.609375 C 24.546875 143.230469 25.101562 143.902344 25.585938 144.628906 C 26.074219 145.355469 26.484375 146.125 26.816406 146.929688 C 27.152344 147.738281 27.40625 148.570312 27.578125 149.429688 C 27.746094 150.285156 27.832031 151.152344 27.832031 152.027344 L 27.832031 302.96875 C 27.824219 304.734375 28.160156 306.433594 28.847656 308.058594 C 29.535156 309.6875 30.515625 311.113281 31.789062 312.339844 C 33.039062 313.597656 34.484375 314.566406 36.121094 315.246094 C 37.761719 315.921875 39.46875 316.257812 41.242188 316.25 L 334.316406 316.25 C 336.070312 316.261719 337.757812 315.925781 339.378906 315.246094 C 340.996094 314.566406 342.417969 313.597656 343.640625 312.339844 C 343.882812 312.234375 344.054688 312.0625 344.15625 311.824219 C 345.277344 310.632812 346.136719 309.273438 346.730469 307.75 C 347.328125 306.226562 347.613281 304.648438 347.597656 303.011719 L 347.597656 63.835938 C 347.605469 62.070312 347.269531 60.371094 346.582031 58.746094 C 345.894531 57.117188 344.914062 55.691406 343.640625 54.464844 C 342.417969 53.207031 340.996094 52.238281 339.378906 51.558594 C 337.757812 50.878906 336.070312 50.542969 334.316406 50.554688 L 41.242188 50.554688 C 39.46875 50.546875 37.761719 50.882812 36.121094 51.558594 C 34.484375 52.238281 33.039062 53.207031 31.789062 54.464844 L 31.273438 54.851562 C 30.183594 56.089844 29.347656 57.476562 28.753906 59.015625 C 28.164062 60.554688 27.855469 62.144531 27.832031 63.792969 L 27.832031 117 C 27.832031 117.875 27.75 118.742188 27.578125 119.597656 C 27.40625 120.457031 27.15625 121.289062 26.820312 122.097656 C 26.484375 122.90625 26.074219 123.675781 25.589844 124.402344 C 25.101562 125.128906 24.550781 125.800781 23.929688 126.421875 C 23.3125 127.039062 22.640625 127.59375 21.914062 128.078125 C 21.183594 128.5625 20.417969 128.972656 19.609375 129.308594 C 18.800781 129.644531 17.96875 129.898438 17.109375 130.066406 C 16.25 130.238281 15.386719 130.324219 14.511719 130.324219 C 13.636719 130.324219 12.769531 130.238281 11.910156 130.066406 C 11.054688 129.898438 10.21875 129.644531 9.410156 129.308594 C 8.605469 128.972656 7.835938 128.5625 7.109375 128.078125 C 6.382812 127.59375 5.707031 127.039062 5.089844 126.421875 C 4.472656 125.800781 3.917969 125.128906 3.433594 124.402344 C 2.945312 123.675781 2.535156 122.90625 2.203125 122.097656 C 1.867188 121.289062 1.613281 120.457031 1.441406 119.597656 C 1.273438 118.742188 1.1875 117.875 1.1875 117 L 1.1875 63.835938 C 1.191406 61.324219 1.429688 58.835938 1.90625 56.371094 C 2.382812 53.90625 3.089844 51.511719 4.023438 49.179688 C 4.960938 46.851562 6.105469 44.628906 7.464844 42.519531 C 8.824219 40.410156 10.371094 38.445312 12.105469 36.628906 C 12.367188 36.292969 12.652344 35.976562 12.964844 35.683594 C 14.820312 33.828125 16.839844 32.171875 19.023438 30.714844 C 21.207031 29.257812 23.511719 28.03125 25.9375 27.03125 C 28.367188 26.03125 30.867188 25.28125 33.441406 24.777344 C 36.019531 24.273438 38.617188 24.027344 41.242188 24.035156 L 334.316406 24.035156 C 335.621094 24.035156 336.925781 24.09375 338.222656 24.21875 C 339.523438 24.347656 340.8125 24.535156 342.09375 24.785156 C 343.375 25.039062 344.640625 25.351562 345.890625 25.730469 C 347.140625 26.105469 348.371094 26.542969 349.578125 27.039062 C 350.785156 27.539062 351.964844 28.09375 353.117188 28.707031 C 354.269531 29.320312 355.390625 29.988281 356.476562 30.710938 C 357.566406 31.4375 358.613281 32.210938 359.625 33.039062 C 360.636719 33.863281 361.601562 34.738281 362.527344 35.660156 C 363.453125 36.582031 364.328125 37.546875 365.160156 38.554688 C 365.988281 39.5625 366.769531 40.609375 367.496094 41.695312 C 368.222656 42.777344 368.894531 43.898438 369.511719 45.046875 C 370.128906 46.199219 370.6875 47.375 371.1875 48.582031 C 371.691406 49.789062 372.132812 51.015625 372.511719 52.265625 C 372.894531 53.511719 373.210938 54.777344 373.46875 56.058594 C 373.722656 57.339844 373.917969 58.628906 374.046875 59.925781 C 374.175781 61.226562 374.242188 62.53125 374.242188 63.835938 L 374.242188 302.96875 C 374.238281 305.480469 374 307.96875 373.523438 310.429688 C 373.046875 312.894531 372.339844 315.292969 371.40625 317.625 C 370.46875 319.953125 369.324219 322.171875 367.964844 324.285156 C 366.605469 326.394531 365.058594 328.359375 363.324219 330.175781 L 362.550781 331.121094 C 360.691406 332.960938 358.667969 334.605469 356.484375 336.050781 C 354.300781 337.496094 352 338.71875 349.578125 339.71875 C 347.15625 340.71875 344.664062 341.472656 342.09375 341.984375 C 339.527344 342.5 336.933594 342.757812 334.316406 342.765625 L 41.242188 342.765625 C 38.621094 342.765625 36.023438 342.507812 33.449219 341.996094 C 30.878906 341.488281 28.378906 340.730469 25.953125 339.734375 C 23.53125 338.734375 21.222656 337.511719 19.039062 336.0625 C 16.851562 334.613281 14.828125 332.964844 12.964844 331.121094 C 11.101562 329.277344 9.441406 327.269531 7.976562 325.097656 C 6.515625 322.929688 5.277344 320.636719 4.265625 318.21875 C 3.257812 315.804688 2.492188 313.3125 1.972656 310.746094 C 1.457031 308.179688 1.191406 305.585938 1.1875 302.96875 Z M 1.1875 152.027344 " fill-opacity="1" fill-rule="nonzero"/></g><path fill="#3b82f6" d="M 111.640625 173.988281 C 112.269531 173.375 112.949219 172.828125 113.683594 172.34375 C 114.414062 171.863281 115.1875 171.457031 116 171.125 C 116.8125 170.792969 117.648438 170.542969 118.511719 170.375 C 119.371094 170.203125 120.242188 170.121094 121.121094 170.121094 C 121.996094 170.121094 122.867188 170.203125 123.726562 170.375 C 124.589844 170.542969 125.425781 170.792969 126.238281 171.125 C 127.050781 171.457031 127.824219 171.863281 128.554688 172.34375 C 129.289062 172.828125 129.96875 173.375 130.597656 173.988281 C 131.210938 174.609375 131.757812 175.285156 132.242188 176.011719 C 132.726562 176.738281 133.132812 177.503906 133.464844 178.3125 C 133.796875 179.121094 134.046875 179.953125 134.21875 180.808594 C 134.386719 181.664062 134.472656 182.527344 134.472656 183.402344 C 134.472656 184.273438 134.386719 185.140625 134.21875 185.996094 C 134.046875 186.851562 133.796875 187.683594 133.464844 188.492188 C 133.132812 189.300781 132.726562 190.066406 132.242188 190.792969 C 131.757812 191.519531 131.210938 192.195312 130.597656 192.816406 L 99.996094 223.199219 L 130.597656 253.714844 C 131.210938 254.332031 131.757812 255 132.238281 255.726562 C 132.722656 256.449219 133.128906 257.210938 133.460938 258.015625 C 133.792969 258.820312 134.042969 259.648438 134.210938 260.5 C 134.378906 261.355469 134.464844 262.214844 134.464844 263.085938 C 134.464844 263.953125 134.378906 264.816406 134.210938 265.667969 C 134.042969 266.519531 133.792969 267.347656 133.460938 268.152344 C 133.128906 268.957031 132.722656 269.71875 132.238281 270.445312 C 131.757812 271.167969 131.210938 271.839844 130.597656 272.453125 C 129.96875 273.070312 129.289062 273.617188 128.554688 274.097656 C 127.824219 274.582031 127.050781 274.988281 126.238281 275.320312 C 125.425781 275.652344 124.589844 275.902344 123.726562 276.070312 C 122.867188 276.238281 121.996094 276.324219 121.121094 276.324219 C 120.242188 276.324219 119.371094 276.238281 118.511719 276.070312 C 117.648438 275.902344 116.8125 275.652344 116 275.320312 C 115.1875 274.988281 114.414062 274.582031 113.683594 274.097656 C 112.949219 273.617188 112.269531 273.070312 111.640625 272.453125 L 71.671875 232.65625 C 71.058594 232.039062 70.511719 231.371094 70.03125 230.644531 C 69.546875 229.921875 69.140625 229.160156 68.808594 228.355469 C 68.476562 227.550781 68.226562 226.722656 68.058594 225.871094 C 67.886719 225.015625 67.804688 224.15625 67.804688 223.285156 C 67.804688 222.417969 67.886719 221.554688 68.058594 220.703125 C 68.226562 219.851562 68.476562 219.023438 68.808594 218.21875 C 69.140625 217.414062 69.546875 216.652344 70.03125 215.925781 C 70.511719 215.203125 71.058594 214.535156 71.671875 213.917969 Z M 111.640625 173.988281 " fill-opacity="1" fill-rule="nonzero"/><path fill="#3b82f6" d="M 244.832031 192.816406 C 244.21875 192.195312 243.671875 191.519531 243.1875 190.792969 C 242.703125 190.066406 242.296875 189.300781 241.964844 188.492188 C 241.632812 187.683594 241.382812 186.851562 241.210938 185.996094 C 241.042969 185.140625 240.957031 184.273438 240.957031 183.402344 C 240.957031 182.527344 241.042969 181.664062 241.210938 180.808594 C 241.382812 179.953125 241.632812 179.121094 241.964844 178.3125 C 242.296875 177.503906 242.703125 176.738281 243.1875 176.011719 C 243.671875 175.285156 244.21875 174.609375 244.832031 173.988281 C 245.460938 173.375 246.140625 172.828125 246.875 172.34375 C 247.605469 171.863281 248.378906 171.457031 249.191406 171.125 C 250.003906 170.792969 250.839844 170.542969 251.703125 170.375 C 252.5625 170.203125 253.433594 170.121094 254.308594 170.121094 C 255.1875 170.121094 256.058594 170.203125 256.917969 170.375 C 257.78125 170.542969 258.617188 170.792969 259.429688 171.125 C 260.242188 171.457031 261.015625 171.863281 261.746094 172.34375 C 262.480469 172.828125 263.160156 173.375 263.789062 173.988281 L 303.757812 213.917969 C 304.371094 214.535156 304.917969 215.203125 305.398438 215.925781 C 305.882812 216.652344 306.289062 217.414062 306.621094 218.21875 C 306.953125 219.023438 307.203125 219.851562 307.371094 220.703125 C 307.542969 221.554688 307.625 222.417969 307.625 223.285156 C 307.625 224.15625 307.542969 225.015625 307.371094 225.871094 C 307.203125 226.722656 306.953125 227.550781 306.621094 228.355469 C 306.289062 229.160156 305.882812 229.921875 305.398438 230.644531 C 304.917969 231.371094 304.371094 232.039062 303.757812 232.65625 L 263.789062 272.453125 C 263.160156 273.070312 262.480469 273.617188 261.746094 274.097656 C 261.015625 274.582031 260.242188 274.988281 259.429688 275.320312 C 258.617188 275.652344 257.78125 275.902344 256.917969 276.070312 C 256.058594 276.238281 255.1875 276.324219 254.308594 276.324219 C 253.433594 276.324219 252.5625 276.238281 251.703125 276.070312 C 250.839844 275.902344 250.003906 275.652344 249.191406 275.320312 C 248.378906 274.988281 247.605469 274.582031 246.875 274.097656 C 246.140625 273.617188 245.460938 273.070312 244.832031 272.453125 C 244.21875 271.839844 243.671875 271.167969 243.191406 270.445312 C 242.707031 269.71875 242.300781 268.957031 241.96875 268.152344 C 241.636719 267.347656 241.386719 266.519531 241.21875 265.667969 C 241.050781 264.816406 240.964844 263.953125 240.964844 263.085938 C 240.964844 262.214844 241.050781 261.355469 241.21875 260.5 C 241.386719 259.648438 241.636719 258.820312 241.96875 258.015625 C 242.300781 257.210938 242.707031 256.449219 243.191406 255.726562 C 243.671875 255 244.21875 254.332031 244.832031 253.714844 L 275.433594 223.199219 Z M 244.832031 192.816406 " fill-opacity="1" fill-rule="nonzero"/><path fill="#3b82f6" d="M 202.457031 164.148438 C 202.851562 163.371094 203.320312 162.644531 203.859375 161.960938 C 204.398438 161.277344 205 160.652344 205.660156 160.085938 C 206.324219 159.519531 207.03125 159.023438 207.792969 158.597656 C 208.550781 158.171875 209.34375 157.824219 210.171875 157.550781 C 210.996094 157.28125 211.84375 157.09375 212.707031 156.988281 C 213.570312 156.882812 214.4375 156.859375 215.304688 156.925781 C 216.175781 156.988281 217.027344 157.136719 217.867188 157.371094 C 218.707031 157.601562 219.515625 157.914062 220.292969 158.300781 C 221.082031 158.679688 221.824219 159.128906 222.523438 159.652344 C 223.222656 160.175781 223.863281 160.765625 224.445312 161.417969 C 225.027344 162.070312 225.539062 162.773438 225.980469 163.527344 C 226.421875 164.28125 226.785156 165.070312 227.070312 165.898438 C 227.351562 166.722656 227.550781 167.570312 227.667969 168.4375 C 227.785156 169.300781 227.8125 170.171875 227.753906 171.042969 C 227.695312 171.914062 227.554688 172.773438 227.324219 173.617188 C 227.097656 174.457031 226.785156 175.269531 226.394531 176.054688 L 172.972656 282.253906 C 172.578125 283.03125 172.113281 283.761719 171.574219 284.445312 C 171.035156 285.132812 170.4375 285.757812 169.777344 286.328125 C 169.117188 286.894531 168.40625 287.394531 167.648438 287.820312 C 166.890625 288.25 166.097656 288.601562 165.269531 288.875 C 164.441406 289.148438 163.59375 289.339844 162.730469 289.445312 C 161.867188 289.550781 161 289.574219 160.128906 289.511719 C 159.261719 289.449219 158.40625 289.300781 157.566406 289.070312 C 156.726562 288.839844 155.917969 288.53125 155.136719 288.140625 C 154.355469 287.769531 153.617188 287.320312 152.921875 286.800781 C 152.230469 286.28125 151.59375 285.695312 151.019531 285.042969 C 150.445312 284.394531 149.941406 283.695312 149.507812 282.945312 C 149.074219 282.191406 148.71875 281.40625 148.445312 280.582031 C 148.167969 279.761719 147.980469 278.917969 147.875 278.058594 C 147.769531 277.195312 147.75 276.335938 147.820312 275.46875 C 147.890625 274.605469 148.042969 273.757812 148.285156 272.921875 C 148.527344 272.089844 148.847656 271.289062 149.25 270.519531 Z M 202.457031 164.148438 " fill-opacity="1" fill-rule="nonzero"/></svg>