<svg xmlns="http://www.w3.org/2000/svg" xmlns:xlink="http://www.w3.org/1999/xlink" width="500" zoomAndPan="magnify" viewBox="0 0 375 374.999991" height="500" preserveAspectRatio="xMidYMid meet" version="1.0"><defs><clipPath id="b1204b3554"><path d="M 1 50.15625 L 373 50.15625 L 373 324.65625 L 1 324.65625 Z M 1 50.15625 " clip-rule="nonzero"/></clipPath></defs><g clip-path="url(#b1204b3554)"><path fill="#000000" d="M 369.339844 152.109375 C 365.988281 147.203125 360.480469 144.332031 354.492188 144.332031 L 315.925781 144.332031 L 315.925781 107.828125 C 315.925781 97.914062 307.886719 89.878906 297.964844 89.878906 L 166.359375 89.878906 L 134.140625 55.726562 C 130.75 52.128906 126.019531 50.089844 121.074219 50.089844 L 19.242188 50.089844 C 9.320312 50.089844 1.28125 58.121094 1.28125 68.035156 L 1.28125 306.777344 C 1.28125 316.691406 9.320312 324.722656 19.242188 324.722656 L 297.964844 324.722656 C 305.59375 324.722656 312.066406 319.957031 314.671875 313.257812 L 371.253906 168.859375 C 373.410156 163.238281 372.691406 157.015625 369.339844 152.109375 Z M 113.320312 85.984375 L 145.539062 120.136719 C 148.929688 123.738281 153.660156 125.777344 158.605469 125.777344 L 280.003906 125.777344 L 280.003906 144.332031 L 75.753906 144.332031 C 68.332031 144.332031 61.746094 148.878906 58.992188 155.699219 L 37.203125 211.402344 L 37.203125 85.984375 Z M 285.679688 288.828125 L 45.582031 288.828125 L 45.941406 287.914062 L 88.085938 180.226562 L 328.152344 180.226562 Z M 285.679688 288.828125 " fill-opacity="1" fill-rule="nonzero"/></g></svg>