<svg xmlns="http://www.w3.org/2000/svg" xmlns:xlink="http://www.w3.org/1999/xlink" width="500" zoomAndPan="magnify" viewBox="0 0 375 374.999991" height="500" preserveAspectRatio="xMidYMid meet" version="1.0"><defs><clipPath id="e625c59047"><path d="M 22.03125 90 L 352.78125 90 L 352.78125 315 L 22.03125 315 Z M 22.03125 90 " clip-rule="nonzero"/></clipPath><clipPath id="9675f29c34"><path d="M 22.03125 272 L 352.78125 272 L 352.78125 285 L 22.03125 285 Z M 22.03125 272 " clip-rule="nonzero"/></clipPath></defs><path fill="#3b82f6" d="M 317.191406 253.730469 L 57.738281 253.730469 C 54.5 253.730469 51.878906 251.109375 51.878906 247.871094 L 51.878906 5.882812 C 51.878906 2.648438 54.5 0.0234375 57.738281 0.0234375 L 317.1875 0.0234375 C 320.425781 0.0234375 323.046875 2.648438 323.046875 5.882812 L 323.046875 247.871094 C 323.046875 251.109375 320.425781 253.730469 317.191406 253.730469 Z M 63.597656 242.011719 L 311.332031 242.011719 L 311.332031 11.742188 L 63.597656 11.742188 Z M 63.597656 242.011719 " fill-opacity="1" fill-rule="nonzero"/><path fill="#3b82f6" d="M 87.390625 41.988281 C 87.011719 41.988281 86.621094 41.949219 86.242188 41.878906 C 85.867188 41.804688 85.5 41.6875 85.148438 41.539062 C 84.792969 41.394531 84.453125 41.210938 84.140625 41.003906 C 83.816406 40.792969 83.515625 40.542969 83.246094 40.273438 C 82.976562 40.003906 82.734375 39.703125 82.515625 39.386719 C 82.308594 39.066406 82.125 38.726562 81.980469 38.371094 C 81.832031 38.019531 81.722656 37.652344 81.640625 37.277344 C 81.570312 36.898438 81.53125 36.515625 81.53125 36.136719 C 81.53125 35.746094 81.570312 35.367188 81.640625 34.984375 C 81.722656 34.613281 81.832031 34.246094 81.980469 33.894531 C 82.125 33.535156 82.308594 33.199219 82.515625 32.878906 C 82.734375 32.5625 82.976562 32.261719 83.246094 31.992188 C 83.515625 31.71875 83.816406 31.472656 84.140625 31.257812 C 84.453125 31.054688 84.792969 30.871094 85.148438 30.722656 C 85.5 30.578125 85.867188 30.460938 86.242188 30.386719 C 86.996094 30.234375 87.78125 30.234375 88.535156 30.386719 C 88.90625 30.460938 89.273438 30.578125 89.632812 30.722656 C 89.984375 30.871094 90.320312 31.054688 90.644531 31.257812 C 90.964844 31.472656 91.257812 31.71875 91.527344 31.992188 C 91.800781 32.261719 92.046875 32.5625 92.261719 32.878906 C 92.472656 33.199219 92.648438 33.535156 92.796875 33.894531 C 92.949219 34.246094 93.058594 34.613281 93.132812 34.984375 C 93.214844 35.367188 93.25 35.746094 93.25 36.136719 C 93.25 36.515625 93.214844 36.898438 93.132812 37.277344 C 93.058594 37.652344 92.949219 38.019531 92.796875 38.371094 C 92.648438 38.726562 92.472656 39.066406 92.261719 39.386719 C 92.046875 39.703125 91.800781 40.003906 91.527344 40.273438 C 91.257812 40.542969 90.964844 40.792969 90.644531 41.003906 C 90.320312 41.210938 89.984375 41.394531 89.632812 41.539062 C 89.273438 41.6875 88.90625 41.804688 88.535156 41.878906 C 88.152344 41.949219 87.773438 41.988281 87.390625 41.988281 Z M 87.390625 41.988281 " fill-opacity="1" fill-rule="nonzero"/><path fill="#3b82f6" d="M 117.042969 41.988281 C 116.664062 41.988281 116.273438 41.949219 115.894531 41.878906 C 115.519531 41.804688 115.152344 41.6875 114.800781 41.539062 C 114.441406 41.394531 114.105469 41.21875 113.792969 41.003906 C 113.46875 40.792969 113.167969 40.542969 112.898438 40.273438 C 111.808594 39.183594 111.183594 37.671875 111.183594 36.136719 C 111.183594 34.589844 111.808594 33.082031 112.898438 31.992188 C 113.167969 31.71875 113.46875 31.472656 113.792969 31.257812 C 114.105469 31.054688 114.441406 30.871094 114.800781 30.722656 C 115.152344 30.578125 115.519531 30.460938 115.894531 30.386719 C 116.65625 30.234375 117.429688 30.234375 118.183594 30.386719 C 118.558594 30.460938 118.925781 30.578125 119.285156 30.722656 C 119.636719 30.871094 119.972656 31.054688 120.292969 31.257812 C 120.617188 31.472656 120.910156 31.71875 121.179688 31.992188 C 122.273438 33.082031 122.902344 34.589844 122.902344 36.136719 C 122.902344 37.671875 122.273438 39.183594 121.179688 40.273438 C 120.910156 40.542969 120.617188 40.792969 120.292969 41.003906 C 119.972656 41.21875 119.636719 41.394531 119.285156 41.539062 C 118.925781 41.6875 118.558594 41.804688 118.183594 41.878906 C 117.804688 41.949219 117.425781 41.988281 117.042969 41.988281 Z M 117.042969 41.988281 " fill-opacity="1" fill-rule="nonzero"/><path fill="#3b82f6" d="M 146.695312 41.988281 C 146.3125 41.988281 145.925781 41.949219 145.546875 41.878906 C 145.171875 41.804688 144.804688 41.6875 144.453125 41.539062 C 144.09375 41.394531 143.757812 41.210938 143.441406 41.003906 C 143.121094 40.792969 142.820312 40.542969 142.550781 40.273438 C 142.277344 40.003906 142.039062 39.703125 141.816406 39.386719 C 141.613281 39.066406 141.429688 38.726562 141.28125 38.375 C 141.136719 38.019531 141.027344 37.652344 140.945312 37.277344 C 140.871094 36.898438 140.835938 36.515625 140.835938 36.136719 C 140.835938 35.746094 140.871094 35.367188 140.945312 34.984375 C 141.027344 34.613281 141.136719 34.246094 141.28125 33.886719 C 141.429688 33.535156 141.613281 33.199219 141.816406 32.878906 C 142.039062 32.5625 142.277344 32.261719 142.550781 31.992188 C 142.820312 31.71875 143.121094 31.472656 143.441406 31.257812 C 143.757812 31.054688 144.09375 30.871094 144.453125 30.722656 C 144.804688 30.578125 145.171875 30.460938 145.546875 30.386719 C 146.308594 30.234375 147.082031 30.234375 147.835938 30.386719 C 148.210938 30.460938 148.578125 30.578125 148.9375 30.722656 C 149.289062 30.871094 149.625 31.054688 149.945312 31.257812 C 150.269531 31.472656 150.570312 31.71875 150.832031 31.992188 C 151.101562 32.261719 151.351562 32.5625 151.566406 32.878906 C 151.777344 33.199219 151.953125 33.535156 152.097656 33.886719 C 152.246094 34.246094 152.363281 34.613281 152.4375 34.984375 C 152.507812 35.367188 152.554688 35.746094 152.554688 36.136719 C 152.554688 36.515625 152.507812 36.898438 152.4375 37.277344 C 152.363281 37.652344 152.246094 38.019531 152.097656 38.375 C 151.953125 38.726562 151.777344 39.066406 151.566406 39.386719 C 151.351562 39.703125 151.101562 40.003906 150.832031 40.273438 C 150.570312 40.542969 150.269531 40.792969 149.945312 41.003906 C 149.625 41.210938 149.289062 41.394531 148.9375 41.539062 C 148.578125 41.6875 148.210938 41.804688 147.835938 41.878906 C 147.457031 41.949219 147.074219 41.988281 146.695312 41.988281 Z M 146.695312 41.988281 " fill-opacity="1" fill-rule="nonzero"/><path fill="#3b82f6" d="M 317.191406 72.238281 L 57.738281 72.238281 C 54.5 72.238281 51.878906 69.617188 51.878906 66.378906 C 51.878906 63.144531 54.5 60.523438 57.738281 60.523438 L 317.1875 60.523438 C 320.425781 60.523438 323.046875 63.144531 323.046875 66.378906 C 323.046875 69.617188 320.425781 72.238281 317.191406 72.238281 Z M 317.191406 72.238281 " fill-opacity="1" fill-rule="nonzero"/><path fill="#3b82f6" d="M 287.539062 41.992188 L 183.757812 41.992188 C 180.523438 41.992188 177.898438 39.367188 177.898438 36.132812 C 177.898438 32.898438 180.523438 30.273438 183.757812 30.273438 L 287.539062 30.273438 C 290.773438 30.273438 293.394531 32.898438 293.394531 36.132812 C 293.394531 39.367188 290.773438 41.992188 287.539062 41.992188 Z M 287.539062 41.992188 " fill-opacity="1" fill-rule="nonzero"/><path fill="#3b82f6" d="M 131.867188 132.738281 L 87.390625 132.738281 C 84.152344 132.738281 81.53125 130.113281 81.53125 126.878906 L 81.53125 96.628906 C 81.53125 93.394531 84.152344 90.769531 87.390625 90.769531 L 131.867188 90.769531 C 135.101562 90.769531 137.726562 93.394531 137.726562 96.628906 L 137.726562 126.878906 C 137.726562 130.113281 135.101562 132.738281 131.867188 132.738281 Z M 93.246094 121.019531 L 126.007812 121.019531 L 126.007812 102.488281 L 93.246094 102.488281 Z M 93.246094 121.019531 " fill-opacity="1" fill-rule="nonzero"/><path fill="#3b82f6" d="M 124.453125 223.484375 L 87.386719 223.484375 C 84.152344 223.484375 81.53125 220.859375 81.53125 217.625 C 81.53125 214.390625 84.152344 211.765625 87.386719 211.765625 L 124.453125 211.765625 C 127.6875 211.765625 130.3125 214.390625 130.3125 217.625 C 130.3125 220.859375 127.691406 223.484375 124.453125 223.484375 Z M 124.453125 223.484375 " fill-opacity="1" fill-rule="nonzero"/><path fill="#3b82f6" d="M 124.453125 193.234375 L 87.386719 193.234375 C 84.152344 193.234375 81.53125 190.609375 81.53125 187.375 C 81.53125 184.140625 84.152344 181.515625 87.386719 181.515625 L 124.453125 181.515625 C 127.6875 181.515625 130.3125 184.140625 130.3125 187.375 C 130.3125 190.609375 127.691406 193.234375 124.453125 193.234375 Z M 124.453125 193.234375 " fill-opacity="1" fill-rule="nonzero"/><path fill="#3b82f6" d="M 124.453125 162.984375 L 87.386719 162.984375 C 84.152344 162.984375 81.53125 160.363281 81.53125 157.125 C 81.53125 153.890625 84.152344 151.265625 87.386719 151.265625 L 124.453125 151.265625 C 127.6875 151.265625 130.3125 153.890625 130.3125 157.125 C 130.3125 160.363281 127.691406 162.984375 124.453125 162.984375 Z M 124.453125 162.984375 " fill-opacity="1" fill-rule="nonzero"/><path fill="#3b82f6" d="M 191.164062 132.738281 C 190.03125 132.738281 188.886719 132.410156 187.875 131.722656 L 165.636719 116.597656 C 164.03125 115.507812 163.074219 113.695312 163.074219 111.753906 C 163.074219 109.8125 164.03125 108 165.636719 106.910156 L 187.875 91.785156 C 190.550781 89.964844 194.195312 90.660156 196.015625 93.335938 C 197.832031 96.011719 197.140625 99.65625 194.464844 101.472656 L 179.347656 111.753906 L 194.464844 122.035156 C 197.140625 123.855469 197.835938 127.496094 196.015625 130.171875 C 194.882812 131.839844 193.039062 132.738281 191.164062 132.738281 Z M 191.164062 132.738281 " fill-opacity="1" fill-rule="nonzero"/><path fill="#3b82f6" d="M 265.304688 132.738281 C 263.429688 132.738281 261.589844 131.839844 260.453125 130.171875 C 258.636719 127.496094 259.328125 123.855469 262.003906 122.035156 L 277.121094 111.753906 L 262.003906 101.472656 C 259.328125 99.65625 258.636719 96.011719 260.453125 93.335938 C 262.273438 90.660156 265.917969 89.964844 268.59375 91.785156 L 290.832031 106.910156 C 292.4375 108 293.394531 109.816406 293.394531 111.753906 C 293.394531 113.695312 292.4375 115.507812 290.832031 116.597656 L 268.59375 131.722656 C 267.585938 132.40625 266.4375 132.738281 265.304688 132.738281 Z M 265.304688 132.738281 " fill-opacity="1" fill-rule="nonzero"/><path fill="#3b82f6" d="M 220.816406 132.738281 C 219.949219 132.738281 219.074219 132.546875 218.242188 132.140625 C 215.335938 130.714844 214.136719 127.207031 215.558594 124.300781 L 230.386719 94.050781 C 231.8125 91.144531 235.320312 89.945312 238.226562 91.367188 C 241.132812 92.792969 242.332031 96.300781 240.90625 99.207031 L 226.082031 129.457031 C 225.066406 131.53125 222.984375 132.738281 220.816406 132.738281 Z M 220.816406 132.738281 " fill-opacity="1" fill-rule="nonzero"/><path fill="#3b82f6" d="M 176.34375 162.984375 L 154.105469 162.984375 C 150.867188 162.984375 148.246094 160.363281 148.246094 157.125 C 148.246094 153.890625 150.867188 151.265625 154.105469 151.265625 L 176.34375 151.265625 C 179.578125 151.265625 182.203125 153.890625 182.203125 157.125 C 182.203125 160.363281 179.578125 162.984375 176.34375 162.984375 Z M 176.34375 162.984375 " fill-opacity="1" fill-rule="nonzero"/><path fill="#3b82f6" d="M 220.820312 162.984375 L 205.996094 162.984375 C 202.761719 162.984375 200.136719 160.363281 200.136719 157.125 C 200.136719 153.890625 202.761719 151.265625 205.996094 151.265625 L 220.820312 151.265625 C 224.058594 151.265625 226.679688 153.890625 226.679688 157.125 C 226.679688 160.363281 224.058594 162.984375 220.820312 162.984375 Z M 220.820312 162.984375 " fill-opacity="1" fill-rule="nonzero"/><path fill="#3b82f6" d="M 280.125 162.984375 L 258.945312 162.984375 C 255.710938 162.984375 253.085938 160.363281 253.085938 157.125 C 253.085938 153.890625 255.710938 151.265625 258.945312 151.265625 L 280.125 151.265625 C 283.359375 151.265625 285.984375 153.890625 285.984375 157.125 C 285.984375 160.363281 283.359375 162.984375 280.125 162.984375 Z M 280.125 162.984375 " fill-opacity="1" fill-rule="nonzero"/><path fill="#3b82f6" d="M 287.539062 193.234375 L 265.300781 193.234375 C 262.0625 193.234375 259.441406 190.609375 259.441406 187.375 C 259.441406 184.140625 262.0625 181.515625 265.300781 181.515625 L 287.539062 181.515625 C 290.773438 181.515625 293.394531 184.140625 293.394531 187.375 C 293.394531 190.609375 290.773438 193.234375 287.539062 193.234375 Z M 287.539062 193.234375 " fill-opacity="1" fill-rule="nonzero"/><path fill="#3b82f6" d="M 235.648438 193.234375 L 213.410156 193.234375 C 210.171875 193.234375 207.550781 190.609375 207.550781 187.375 C 207.550781 184.140625 210.171875 181.515625 213.410156 181.515625 L 235.648438 181.515625 C 238.882812 181.515625 241.507812 184.140625 241.507812 187.375 C 241.507812 190.609375 238.882812 193.234375 235.648438 193.234375 Z M 235.648438 193.234375 " fill-opacity="1" fill-rule="nonzero"/><path fill="#3b82f6" d="M 177.402344 193.234375 L 154.105469 193.234375 C 150.871094 193.234375 148.246094 190.609375 148.246094 187.375 C 148.246094 184.140625 150.871094 181.515625 154.105469 181.515625 L 177.402344 181.515625 C 180.636719 181.515625 183.261719 184.140625 183.261719 187.375 C 183.261719 190.609375 180.640625 193.234375 177.402344 193.234375 Z M 177.402344 193.234375 " fill-opacity="1" fill-rule="nonzero"/><path fill="#3b82f6" d="M 287.539062 223.484375 L 154.105469 223.484375 C 150.871094 223.484375 148.246094 220.859375 148.246094 217.625 C 148.246094 214.390625 150.871094 211.765625 154.105469 211.765625 L 287.539062 211.765625 C 290.773438 211.765625 293.398438 214.390625 293.398438 217.625 C 293.398438 220.859375 290.773438 223.484375 287.539062 223.484375 Z M 287.539062 223.484375 " fill-opacity="1" fill-rule="nonzero"/><path fill="#3b82f6" d="M 317.191406 253.730469 L 57.738281 253.730469 C 54.5 253.730469 51.878906 251.109375 51.878906 247.871094 L 51.878906 5.882812 C 51.878906 2.648438 54.5 0.0234375 57.738281 0.0234375 L 317.1875 0.0234375 C 320.425781 0.0234375 323.046875 2.648438 323.046875 5.882812 L 323.046875 247.871094 C 323.046875 251.109375 320.425781 253.730469 317.191406 253.730469 Z M 63.597656 242.011719 L 311.332031 242.011719 L 311.332031 11.742188 L 63.597656 11.742188 Z M 63.597656 242.011719 " fill-opacity="1" fill-rule="nonzero"/><path fill="#3b82f6" d="M 87.390625 41.988281 C 87.011719 41.988281 86.621094 41.949219 86.242188 41.878906 C 85.867188 41.804688 85.5 41.6875 85.148438 41.539062 C 84.792969 41.394531 84.453125 41.210938 84.140625 41.003906 C 83.816406 40.792969 83.515625 40.542969 83.246094 40.273438 C 82.976562 40.003906 82.734375 39.703125 82.515625 39.386719 C 82.308594 39.066406 82.125 38.726562 81.980469 38.371094 C 81.832031 38.019531 81.722656 37.652344 81.640625 37.277344 C 81.570312 36.898438 81.53125 36.515625 81.53125 36.136719 C 81.53125 35.746094 81.570312 35.367188 81.640625 34.984375 C 81.722656 34.613281 81.832031 34.246094 81.980469 33.894531 C 82.125 33.535156 82.308594 33.199219 82.515625 32.878906 C 82.734375 32.5625 82.976562 32.261719 83.246094 31.992188 C 83.515625 31.71875 83.816406 31.472656 84.140625 31.257812 C 84.453125 31.054688 84.792969 30.871094 85.148438 30.722656 C 85.5 30.578125 85.867188 30.460938 86.242188 30.386719 C 86.996094 30.234375 87.78125 30.234375 88.535156 30.386719 C 88.90625 30.460938 89.273438 30.578125 89.632812 30.722656 C 89.984375 30.871094 90.320312 31.054688 90.644531 31.257812 C 90.964844 31.472656 91.257812 31.71875 91.527344 31.992188 C 91.800781 32.261719 92.046875 32.5625 92.261719 32.878906 C 92.472656 33.199219 92.648438 33.535156 92.796875 33.894531 C 92.949219 34.246094 93.058594 34.613281 93.132812 34.984375 C 93.214844 35.367188 93.25 35.746094 93.25 36.136719 C 93.25 36.515625 93.214844 36.898438 93.132812 37.277344 C 93.058594 37.652344 92.949219 38.019531 92.796875 38.371094 C 92.648438 38.726562 92.472656 39.066406 92.261719 39.386719 C 92.046875 39.703125 91.800781 40.003906 91.527344 40.273438 C 91.257812 40.542969 90.964844 40.792969 90.644531 41.003906 C 90.320312 41.210938 89.984375 41.394531 89.632812 41.539062 C 89.273438 41.6875 88.90625 41.804688 88.535156 41.878906 C 88.152344 41.949219 87.773438 41.988281 87.390625 41.988281 Z M 87.390625 41.988281 " fill-opacity="1" fill-rule="nonzero"/><path fill="#3b82f6" d="M 117.042969 41.988281 C 116.664062 41.988281 116.273438 41.949219 115.894531 41.878906 C 115.519531 41.804688 115.152344 41.6875 114.800781 41.539062 C 114.441406 41.394531 114.105469 41.21875 113.792969 41.003906 C 113.46875 40.792969 113.167969 40.542969 112.898438 40.273438 C 111.808594 39.183594 111.183594 37.671875 111.183594 36.136719 C 111.183594 34.589844 111.808594 33.082031 112.898438 31.992188 C 113.167969 31.71875 113.46875 31.472656 113.792969 31.257812 C 114.105469 31.054688 114.441406 30.871094 114.800781 30.722656 C 115.152344 30.578125 115.519531 30.460938 115.894531 30.386719 C 116.65625 30.234375 117.429688 30.234375 118.183594 30.386719 C 118.558594 30.460938 118.925781 30.578125 119.285156 30.722656 C 119.636719 30.871094 119.972656 31.054688 120.292969 31.257812 C 120.617188 31.472656 120.910156 31.71875 121.179688 31.992188 C 122.273438 33.082031 122.902344 34.589844 122.902344 36.136719 C 122.902344 37.671875 122.273438 39.183594 121.179688 40.273438 C 120.910156 40.542969 120.617188 40.792969 120.292969 41.003906 C 119.972656 41.21875 119.636719 41.394531 119.285156 41.539062 C 118.925781 41.6875 118.558594 41.804688 118.183594 41.878906 C 117.804688 41.949219 117.425781 41.988281 117.042969 41.988281 Z M 117.042969 41.988281 " fill-opacity="1" fill-rule="nonzero"/><path fill="#3b82f6" d="M 146.695312 41.988281 C 146.3125 41.988281 145.925781 41.949219 145.546875 41.878906 C 145.171875 41.804688 144.804688 41.6875 144.453125 41.539062 C 144.09375 41.394531 143.757812 41.210938 143.441406 41.003906 C 143.121094 40.792969 142.820312 40.542969 142.550781 40.273438 C 142.277344 40.003906 142.039062 39.703125 141.816406 39.386719 C 141.613281 39.066406 141.429688 38.726562 141.28125 38.375 C 141.136719 38.019531 141.027344 37.652344 140.945312 37.277344 C 140.871094 36.898438 140.835938 36.515625 140.835938 36.136719 C 140.835938 35.746094 140.871094 35.367188 140.945312 34.984375 C 141.027344 34.613281 141.136719 34.246094 141.28125 33.886719 C 141.429688 33.535156 141.613281 33.199219 141.816406 32.878906 C 142.039062 32.5625 142.277344 32.261719 142.550781 31.992188 C 142.820312 31.71875 143.121094 31.472656 143.441406 31.257812 C 143.757812 31.054688 144.09375 30.871094 144.453125 30.722656 C 144.804688 30.578125 145.171875 30.460938 145.546875 30.386719 C 146.308594 30.234375 147.082031 30.234375 147.835938 30.386719 C 148.210938 30.460938 148.578125 30.578125 148.9375 30.722656 C 149.289062 30.871094 149.625 31.054688 149.945312 31.257812 C 150.269531 31.472656 150.570312 31.71875 150.832031 31.992188 C 151.101562 32.261719 151.351562 32.5625 151.566406 32.878906 C 151.777344 33.199219 151.953125 33.535156 152.097656 33.886719 C 152.246094 34.246094 152.363281 34.613281 152.4375 34.984375 C 152.507812 35.367188 152.554688 35.746094 152.554688 36.136719 C 152.554688 36.515625 152.507812 36.898438 152.4375 37.277344 C 152.363281 37.652344 152.246094 38.019531 152.097656 38.375 C 151.953125 38.726562 151.777344 39.066406 151.566406 39.386719 C 151.351562 39.703125 151.101562 40.003906 150.832031 40.273438 C 150.570312 40.542969 150.269531 40.792969 149.945312 41.003906 C 149.625 41.210938 149.289062 41.394531 148.9375 41.539062 C 148.578125 41.6875 148.210938 41.804688 147.835938 41.878906 C 147.457031 41.949219 147.074219 41.988281 146.695312 41.988281 Z M 146.695312 41.988281 " fill-opacity="1" fill-rule="nonzero"/><path fill="#3b82f6" d="M 317.191406 72.238281 L 57.738281 72.238281 C 54.5 72.238281 51.878906 69.617188 51.878906 66.378906 C 51.878906 63.144531 54.5 60.523438 57.738281 60.523438 L 317.1875 60.523438 C 320.425781 60.523438 323.046875 63.144531 323.046875 66.378906 C 323.046875 69.617188 320.425781 72.238281 317.191406 72.238281 Z M 317.191406 72.238281 " fill-opacity="1" fill-rule="nonzero"/><path fill="#3b82f6" d="M 287.539062 41.992188 L 183.757812 41.992188 C 180.523438 41.992188 177.898438 39.367188 177.898438 36.132812 C 177.898438 32.898438 180.523438 30.273438 183.757812 30.273438 L 287.539062 30.273438 C 290.773438 30.273438 293.394531 32.898438 293.394531 36.132812 C 293.394531 39.367188 290.773438 41.992188 287.539062 41.992188 Z M 287.539062 41.992188 " fill-opacity="1" fill-rule="nonzero"/><path fill="#3b82f6" d="M 131.867188 132.738281 L 87.390625 132.738281 C 84.152344 132.738281 81.53125 130.113281 81.53125 126.878906 L 81.53125 96.628906 C 81.53125 93.394531 84.152344 90.769531 87.390625 90.769531 L 131.867188 90.769531 C 135.101562 90.769531 137.726562 93.394531 137.726562 96.628906 L 137.726562 126.878906 C 137.726562 130.113281 135.101562 132.738281 131.867188 132.738281 Z M 93.246094 121.019531 L 126.007812 121.019531 L 126.007812 102.488281 L 93.246094 102.488281 Z M 93.246094 121.019531 " fill-opacity="1" fill-rule="nonzero"/><path fill="#3b82f6" d="M 124.453125 223.484375 L 87.386719 223.484375 C 84.152344 223.484375 81.53125 220.859375 81.53125 217.625 C 81.53125 214.390625 84.152344 211.765625 87.386719 211.765625 L 124.453125 211.765625 C 127.6875 211.765625 130.3125 214.390625 130.3125 217.625 C 130.3125 220.859375 127.691406 223.484375 124.453125 223.484375 Z M 124.453125 223.484375 " fill-opacity="1" fill-rule="nonzero"/><path fill="#3b82f6" d="M 124.453125 193.234375 L 87.386719 193.234375 C 84.152344 193.234375 81.53125 190.609375 81.53125 187.375 C 81.53125 184.140625 84.152344 181.515625 87.386719 181.515625 L 124.453125 181.515625 C 127.6875 181.515625 130.3125 184.140625 130.3125 187.375 C 130.3125 190.609375 127.691406 193.234375 124.453125 193.234375 Z M 124.453125 193.234375 " fill-opacity="1" fill-rule="nonzero"/><path fill="#3b82f6" d="M 124.453125 162.984375 L 87.386719 162.984375 C 84.152344 162.984375 81.53125 160.363281 81.53125 157.125 C 81.53125 153.890625 84.152344 151.265625 87.386719 151.265625 L 124.453125 151.265625 C 127.6875 151.265625 130.3125 153.890625 130.3125 157.125 C 130.3125 160.363281 127.691406 162.984375 124.453125 162.984375 Z M 124.453125 162.984375 " fill-opacity="1" fill-rule="nonzero"/><path fill="#3b82f6" d="M 191.164062 132.738281 C 190.03125 132.738281 188.886719 132.410156 187.875 131.722656 L 165.636719 116.597656 C 164.03125 115.507812 163.074219 113.695312 163.074219 111.753906 C 163.074219 109.8125 164.03125 108 165.636719 106.910156 L 187.875 91.785156 C 190.550781 89.964844 194.195312 90.660156 196.015625 93.335938 C 197.832031 96.011719 197.140625 99.65625 194.464844 101.472656 L 179.347656 111.753906 L 194.464844 122.035156 C 197.140625 123.855469 197.835938 127.496094 196.015625 130.171875 C 194.882812 131.839844 193.039062 132.738281 191.164062 132.738281 Z M 191.164062 132.738281 " fill-opacity="1" fill-rule="nonzero"/><path fill="#3b82f6" d="M 265.304688 132.738281 C 263.429688 132.738281 261.589844 131.839844 260.453125 130.171875 C 258.636719 127.496094 259.328125 123.855469 262.003906 122.035156 L 277.121094 111.753906 L 262.003906 101.472656 C 259.328125 99.65625 258.636719 96.011719 260.453125 93.335938 C 262.273438 90.660156 265.917969 89.964844 268.59375 91.785156 L 290.832031 106.910156 C 292.4375 108 293.394531 109.816406 293.394531 111.753906 C 293.394531 113.695312 292.4375 115.507812 290.832031 116.597656 L 268.59375 131.722656 C 267.585938 132.40625 266.4375 132.738281 265.304688 132.738281 Z M 265.304688 132.738281 " fill-opacity="1" fill-rule="nonzero"/><path fill="#3b82f6" d="M 220.816406 132.738281 C 219.949219 132.738281 219.074219 132.546875 218.242188 132.140625 C 215.335938 130.714844 214.136719 127.207031 215.558594 124.300781 L 230.386719 94.050781 C 231.8125 91.144531 235.320312 89.945312 238.226562 91.367188 C 241.132812 92.792969 242.332031 96.300781 240.90625 99.207031 L 226.082031 129.457031 C 225.066406 131.53125 222.984375 132.738281 220.816406 132.738281 Z M 220.816406 132.738281 " fill-opacity="1" fill-rule="nonzero"/><path fill="#3b82f6" d="M 176.34375 162.984375 L 154.105469 162.984375 C 150.867188 162.984375 148.246094 160.363281 148.246094 157.125 C 148.246094 153.890625 150.867188 151.265625 154.105469 151.265625 L 176.34375 151.265625 C 179.578125 151.265625 182.203125 153.890625 182.203125 157.125 C 182.203125 160.363281 179.578125 162.984375 176.34375 162.984375 Z M 176.34375 162.984375 " fill-opacity="1" fill-rule="nonzero"/><path fill="#3b82f6" d="M 220.820312 162.984375 L 205.996094 162.984375 C 202.761719 162.984375 200.136719 160.363281 200.136719 157.125 C 200.136719 153.890625 202.761719 151.265625 205.996094 151.265625 L 220.820312 151.265625 C 224.058594 151.265625 226.679688 153.890625 226.679688 157.125 C 226.679688 160.363281 224.058594 162.984375 220.820312 162.984375 Z M 220.820312 162.984375 " fill-opacity="1" fill-rule="nonzero"/><path fill="#3b82f6" d="M 280.125 162.984375 L 258.945312 162.984375 C 255.710938 162.984375 253.085938 160.363281 253.085938 157.125 C 253.085938 153.890625 255.710938 151.265625 258.945312 151.265625 L 280.125 151.265625 C 283.359375 151.265625 285.984375 153.890625 285.984375 157.125 C 285.984375 160.363281 283.359375 162.984375 280.125 162.984375 Z M 280.125 162.984375 " fill-opacity="1" fill-rule="nonzero"/><path fill="#3b82f6" d="M 287.539062 193.234375 L 265.300781 193.234375 C 262.0625 193.234375 259.441406 190.609375 259.441406 187.375 C 259.441406 184.140625 262.0625 181.515625 265.300781 181.515625 L 287.539062 181.515625 C 290.773438 181.515625 293.394531 184.140625 293.394531 187.375 C 293.394531 190.609375 290.773438 193.234375 287.539062 193.234375 Z M 287.539062 193.234375 " fill-opacity="1" fill-rule="nonzero"/><path fill="#3b82f6" d="M 235.648438 193.234375 L 213.410156 193.234375 C 210.171875 193.234375 207.550781 190.609375 207.550781 187.375 C 207.550781 184.140625 210.171875 181.515625 213.410156 181.515625 L 235.648438 181.515625 C 238.882812 181.515625 241.507812 184.140625 241.507812 187.375 C 241.507812 190.609375 238.882812 193.234375 235.648438 193.234375 Z M 235.648438 193.234375 " fill-opacity="1" fill-rule="nonzero"/><path fill="#3b82f6" d="M 177.402344 193.234375 L 154.105469 193.234375 C 150.871094 193.234375 148.246094 190.609375 148.246094 187.375 C 148.246094 184.140625 150.871094 181.515625 154.105469 181.515625 L 177.402344 181.515625 C 180.636719 181.515625 183.261719 184.140625 183.261719 187.375 C 183.261719 190.609375 180.640625 193.234375 177.402344 193.234375 Z M 177.402344 193.234375 " fill-opacity="1" fill-rule="nonzero"/><path fill="#3b82f6" d="M 287.539062 223.484375 L 154.105469 223.484375 C 150.871094 223.484375 148.246094 220.859375 148.246094 217.625 C 148.246094 214.390625 150.871094 211.765625 154.105469 211.765625 L 287.539062 211.765625 C 290.773438 211.765625 293.398438 214.390625 293.398438 217.625 C 293.398438 220.859375 290.773438 223.484375 287.539062 223.484375 Z M 287.539062 223.484375 " fill-opacity="1" fill-rule="nonzero"/><g clip-path="url(#e625c59047)"><path fill="#3b82f6" d="M 347.054688 314.394531 L 27.871094 314.394531 C 24.636719 314.394531 22.011719 311.773438 22.011719 308.539062 L 22.011719 96.511719 C 22.011719 93.277344 24.636719 90.652344 27.871094 90.652344 L 57.738281 90.652344 C 60.972656 90.652344 63.597656 93.277344 63.597656 96.511719 C 63.597656 99.746094 60.972656 102.371094 57.738281 102.371094 L 33.730469 102.371094 L 33.730469 302.679688 L 341.199219 302.679688 L 341.199219 102.371094 L 317.191406 102.371094 C 313.953125 102.371094 311.332031 99.746094 311.332031 96.511719 C 311.332031 93.277344 313.953125 90.652344 317.191406 90.652344 L 347.054688 90.652344 C 350.292969 90.652344 352.914062 93.277344 352.914062 96.511719 L 352.914062 308.539062 C 352.914062 311.773438 350.292969 314.394531 347.054688 314.394531 Z M 347.054688 314.394531 " fill-opacity="1" fill-rule="nonzero"/></g><g clip-path="url(#9675f29c34)"><path fill="#3b82f6" d="M 347.054688 284.105469 L 27.871094 284.105469 C 24.636719 284.105469 22.011719 281.484375 22.011719 278.25 C 22.011719 275.011719 24.636719 272.390625 27.871094 272.390625 L 347.054688 272.390625 C 350.292969 272.390625 352.914062 275.011719 352.914062 278.25 C 352.914062 281.484375 350.292969 284.105469 347.054688 284.105469 Z M 347.054688 284.105469 " fill-opacity="1" fill-rule="nonzero"/></g><path fill="#3b82f6" d="M 213.445312 344.6875 L 161.484375 344.6875 C 158.246094 344.6875 155.625 342.0625 155.625 338.828125 L 155.625 308.539062 C 155.625 305.300781 158.246094 302.679688 161.484375 302.679688 L 213.445312 302.679688 C 216.679688 302.679688 219.300781 305.300781 219.300781 308.539062 L 219.300781 338.828125 C 219.300781 342.0625 216.679688 344.6875 213.445312 344.6875 Z M 167.34375 332.96875 L 207.585938 332.96875 L 207.585938 314.394531 L 167.34375 314.394531 Z M 167.34375 332.96875 " fill-opacity="1" fill-rule="nonzero"/><path fill="#3b82f6" d="M 257.886719 374.976562 L 117.039062 374.976562 C 113.804688 374.976562 111.183594 372.351562 111.183594 369.117188 L 111.183594 353.972656 C 111.183594 351.464844 112.777344 349.234375 115.152344 348.425781 L 159.628906 333.28125 C 160.238281 333.074219 160.875 332.96875 161.519531 332.96875 L 213.40625 332.96875 C 214.050781 332.96875 214.6875 333.074219 215.296875 333.28125 L 259.773438 348.425781 C 262.148438 349.234375 263.742188 351.464844 263.742188 353.972656 L 263.742188 369.117188 C 263.746094 372.351562 261.121094 374.976562 257.886719 374.976562 Z M 122.898438 363.257812 L 252.027344 363.257812 L 252.027344 358.167969 L 212.4375 344.6875 L 162.488281 344.6875 L 122.898438 358.167969 Z M 122.898438 363.257812 " fill-opacity="1" fill-rule="nonzero"/></svg>