<svg xmlns="http://www.w3.org/2000/svg" xmlns:xlink="http://www.w3.org/1999/xlink" width="500" zoomAndPan="magnify" viewBox="0 0 375 374.999991" height="500" preserveAspectRatio="xMidYMid meet" version="1.0"><path fill="#000000" d="M 263.160156 300.882812 C 263.160156 304.675781 261.773438 308.175781 259.367188 310.800781 L 130.378906 310.800781 C 121.84375 301.613281 128.917969 285.566406 141.613281 285.855469 C 141.613281 285.855469 248.132812 285.855469 248.132812 285.855469 C 256.449219 285.855469 263.160156 292.566406 263.160156 300.882812 Z M 130.378906 320.941406 C 121.84375 330.132812 128.917969 346.179688 141.613281 345.886719 L 248.132812 345.886719 C 260.824219 346.179688 267.902344 330.058594 259.292969 320.941406 Z M 172.765625 372 L 217.050781 372 C 226.535156 372 234.34375 365.070312 235.875 356.027344 L 153.941406 356.027344 C 155.476562 365.070312 163.28125 372 172.765625 372 Z M 268.558594 222.617188 C 252.945312 236.183594 243.390625 255.292969 241.417969 275.71875 L 209.097656 275.71875 L 209.097656 71.484375 C 209.097656 67.179688 212.746094 63.75 217.050781 64.117188 C 296.867188 71.191406 328.019531 171.339844 268.558594 222.617188 Z M 282.710938 154.34375 C 282.929688 123.707031 262.796875 94.96875 233.757812 84.976562 C 230.765625 83.882812 227.339844 85.488281 226.316406 88.550781 C 225.222656 91.613281 226.753906 94.898438 229.820312 95.992188 C 254.1875 104.378906 271.183594 128.523438 270.964844 154.34375 C 271.113281 162.003906 282.640625 162.003906 282.710938 154.34375 Z M 134.246094 240.996094 C 138.039062 237.058594 146.648438 231.953125 149.859375 239.175781 C 151.023438 242.164062 149.492188 245.59375 146.429688 246.761719 C 133.296875 252.742188 140.082031 270.464844 148.253906 275.71875 L 174.445312 275.71875 C 180.0625 271.632812 183.710938 265.066406 183.710938 257.628906 L 183.710938 92.269531 C 183.5625 68.417969 150.878906 61.417969 141.101562 83.082031 C 148.980469 84.613281 172.253906 104.453125 155.546875 108.171875 C 150.003906 107.953125 148.761719 100.585938 144.386719 98.105469 C 122.425781 80.746094 91.199219 104.523438 100.683594 129.835938 C 110.605469 128.011719 123.664062 132.898438 130.304688 141.285156 C 133.589844 144.859375 130.597656 151.0625 125.855469 150.914062 C 124.175781 150.914062 122.570312 150.1875 121.402344 148.800781 C 119.871094 146.976562 116.441406 143.621094 111.042969 142.089844 C 107.25 140.847656 101.996094 141.140625 98.933594 142.164062 C 68.65625 150.988281 66.175781 194.023438 95.066406 206.351562 C 99.007812 200.003906 122.0625 182.425781 126.21875 194.753906 C 127.023438 197.890625 125.050781 201.097656 121.988281 201.828125 C 88.71875 210.070312 93.316406 256.753906 127.605469 257.699219 C 127.679688 252.011719 129.503906 245.738281 134.246094 240.996094 Z M 287.671875 82.496094 C 289.207031 82.496094 290.664062 81.914062 291.832031 80.820312 L 318.898438 53.757812 C 324.226562 48.214844 316.128906 40.117188 310.65625 45.515625 C 310.65625 45.515625 283.589844 72.578125 283.589844 72.578125 C 279.792969 76.003906 282.640625 82.640625 287.671875 82.496094 Z M 358.441406 149.3125 L 320.210938 149.3125 C 312.480469 149.457031 312.550781 160.910156 320.210938 160.980469 L 358.441406 160.980469 C 366.175781 160.910156 366.101562 149.457031 358.441406 149.3125 Z M 291.757812 229.617188 C 286.214844 224.292969 278.117188 232.390625 283.515625 237.859375 L 310.582031 264.921875 C 316.054688 270.320312 324.226562 262.078125 318.828125 256.679688 C 318.828125 256.605469 291.757812 229.617188 291.757812 229.617188 Z M 209.097656 49.964844 C 212.308594 49.964844 214.933594 47.339844 214.933594 44.128906 L 214.933594 5.835938 C 214.933594 2.625 212.308594 0 209.097656 0 C 205.890625 0 203.261719 2.625 203.261719 5.835938 L 203.261719 44.054688 C 203.261719 47.339844 205.890625 49.964844 209.097656 49.964844 Z M 209.097656 49.964844 " fill-opacity="1" fill-rule="nonzero"/></svg>