<svg xmlns="http://www.w3.org/2000/svg" xmlns:xlink="http://www.w3.org/1999/xlink" width="500" zoomAndPan="magnify" viewBox="0 0 375 374.999991" height="500" preserveAspectRatio="xMidYMid meet" version="1.0"><path fill="#000000" d="M 279.714844 130.535156 C 282.34375 138.136719 283.660156 146.101562 283.660156 154.214844 C 283.660156 157.429688 281.105469 159.984375 277.890625 159.984375 C 274.679688 159.984375 272.125 157.429688 272.125 154.214844 C 272.125 147.417969 271.027344 140.695312 268.839844 134.335938 C 262.777344 116.722656 249.199219 102.984375 231.605469 96.699219 C 228.613281 95.605469 227.007812 92.316406 228.101562 89.320312 C 229.195312 86.324219 232.480469 84.714844 235.476562 85.8125 C 256.355469 93.265625 272.488281 109.5625 279.714844 130.535156 Z M 305.925781 159.621094 C 304.539062 185.34375 293.003906 208.949219 273.4375 225.976562 C 258.324219 239.128906 249.417969 257.984375 248.46875 278.226562 C 267.304688 277.128906 277.453125 300.878906 263.800781 313.597656 C 277.089844 325.875 267.890625 349.183594 249.566406 348.964844 L 243.433594 348.964844 C 244.015625 362.921875 232.847656 374.761719 218.828125 374.761719 L 175.246094 374.761719 C 161.226562 374.835938 150.058594 362.921875 150.640625 348.964844 C 150.640625 348.964844 144.511719 348.964844 144.511719 348.964844 C 126.183594 349.183594 116.988281 325.875 130.273438 313.597656 C 118.59375 303.144531 124.214844 282.320312 139.398438 278.957031 C 136.40625 275.742188 133.996094 271.941406 132.390625 267.703125 C 104.867188 269.75 83.988281 241.394531 93.039062 215.746094 C 58.363281 200.03125 58.363281 149.097656 93.039062 133.386719 C 83.988281 107.808594 104.867188 79.453125 132.390625 81.425781 C 145.53125 46.570312 197 55.484375 197.4375 92.972656 L 197.4375 256.15625 C 197.4375 264.632812 194.300781 272.308594 189.117188 278.226562 L 205.324219 278.226562 L 205.324219 72.511719 C 205.175781 65.128906 212.039062 58.699219 219.414062 59.503906 C 269.421875 63.085938 309.574219 109.488281 305.925781 159.621094 Z M 152.6875 237.960938 C 153.855469 240.957031 152.320312 244.246094 149.328125 245.414062 C 147.796875 246 146.480469 246.804688 145.457031 247.898438 C 141.078125 252.285156 142.246094 259.519531 142.394531 260.394531 C 147.867188 286.410156 185.539062 282.832031 186.050781 256.230469 C 186.050781 256.230469 186.050781 93.046875 186.050781 93.046875 C 185.902344 69.441406 153.707031 62.644531 144.070312 83.984375 C 151.808594 85.519531 174.734375 105.105469 158.308594 108.757812 C 152.757812 108.613281 151.664062 101.304688 147.210938 98.820312 C 125.601562 81.644531 94.792969 105.175781 104.210938 130.171875 C 115.089844 128.5625 126.40625 133.019531 133.414062 141.425781 C 135.457031 143.835938 135.164062 147.488281 132.683594 149.535156 C 130.273438 151.582031 126.625 151.289062 124.578125 148.804688 C 123.046875 146.976562 119.6875 143.691406 114.359375 142.15625 C 109.175781 140.621094 104.648438 141.570312 102.457031 142.226562 C 72.671875 150.996094 70.261719 193.382812 98.589844 205.585938 C 102.457031 199.375 125.238281 181.984375 129.25 194.113281 C 130.054688 197.183594 128.15625 200.324219 125.089844 201.128906 C 92.3125 209.242188 96.835938 255.351562 130.640625 256.230469 C 130.785156 251.40625 132.097656 244.902344 137.28125 239.714844 C 141.003906 235.839844 149.621094 230.796875 152.6875 237.960938 Z M 231.972656 348.964844 L 162.25 348.964844 C 161.667969 356.566406 167.652344 363.214844 175.316406 363.214844 L 218.902344 363.214844 C 226.566406 363.289062 232.480469 356.566406 231.972656 348.964844 Z M 258.617188 328.429688 C 258.617188 323.460938 254.601562 319.371094 249.566406 319.371094 L 144.65625 319.371094 C 139.691406 319.371094 135.601562 323.386719 135.601562 328.429688 C 135.601562 333.398438 139.617188 337.492188 144.65625 337.492188 L 249.636719 337.492188 C 254.53125 337.417969 258.617188 333.398438 258.617188 328.429688 Z M 144.65625 289.773438 C 132.757812 290.066406 132.757812 307.53125 144.65625 307.824219 C 144.65625 307.824219 249.636719 307.824219 249.636719 307.824219 C 254.601562 307.824219 258.691406 303.804688 258.691406 298.761719 C 258.691406 293.792969 254.675781 289.699219 249.636719 289.699219 L 144.65625 289.699219 Z M 218.390625 70.976562 C 217.371094 71.050781 216.929688 71.414062 216.785156 72.511719 L 216.785156 278.226562 L 236.789062 278.226562 C 237.8125 254.621094 248.25 232.550781 265.84375 217.277344 C 321.402344 169.707031 290.886719 76.894531 218.390625 70.976562 Z M 292.566406 81.644531 C 292.566406 81.644531 319.210938 54.972656 319.210938 54.972656 C 324.46875 49.566406 316.511719 41.527344 311.035156 46.789062 L 284.390625 73.460938 C 279.132812 78.941406 287.164062 86.90625 292.566406 81.644531 Z M 358.269531 149.316406 L 320.601562 149.316406 C 313.007812 149.460938 313.007812 160.71875 320.601562 160.863281 C 320.601562 160.863281 358.269531 160.863281 358.269531 160.863281 C 365.863281 160.71875 365.863281 149.460938 358.269531 149.316406 Z M 292.566406 228.460938 C 287.164062 223.199219 279.132812 231.164062 284.390625 236.644531 L 311.035156 263.320312 C 316.511719 268.578125 324.46875 260.613281 319.210938 255.132812 C 319.210938 255.132812 292.566406 228.460938 292.566406 228.460938 Z M 216.859375 45.472656 L 216.859375 7.765625 C 216.710938 0.164062 205.46875 0.164062 205.324219 7.765625 C 205.324219 7.765625 205.324219 45.472656 205.324219 45.472656 C 205.46875 53.074219 216.710938 53.074219 216.859375 45.472656 Z M 216.859375 45.472656 " fill-opacity="1" fill-rule="nonzero"/></svg>