<svg xmlns="http://www.w3.org/2000/svg" xmlns:xlink="http://www.w3.org/1999/xlink" width="500" zoomAndPan="magnify" viewBox="0 0 375 374.999991" height="500" preserveAspectRatio="xMidYMid meet" version="1.0"><path fill="#3b82f6" d="M 371.726562 194.867188 C 371.726562 192.414062 371.675781 189.960938 371.578125 187.507812 C 371.476562 185.054688 371.328125 182.601562 371.125 180.15625 C 370.925781 177.710938 370.675781 175.265625 370.375 172.832031 C 370.078125 170.394531 369.726562 167.964844 369.328125 165.542969 C 368.929688 163.121094 368.480469 160.707031 367.980469 158.300781 C 367.484375 155.898438 366.9375 153.503906 366.339844 151.121094 C 365.746094 148.742188 365.101562 146.371094 364.40625 144.015625 C 363.714844 141.660156 362.976562 139.320312 362.1875 136.996094 C 361.398438 134.671875 360.5625 132.363281 359.679688 130.074219 C 358.796875 127.78125 357.867188 125.511719 356.890625 123.257812 C 355.914062 121.003906 354.890625 118.773438 353.824219 116.5625 C 352.757812 114.351562 351.644531 112.160156 350.488281 109.996094 C 349.332031 107.832031 348.132812 105.691406 346.886719 103.574219 C 345.644531 101.457031 344.355469 99.367188 343.027344 97.304688 C 341.695312 95.238281 340.324219 93.203125 338.910156 91.195312 C 337.496094 89.1875 336.042969 87.210938 334.550781 85.261719 C 333.054688 83.316406 331.523438 81.398438 329.949219 79.511719 C 328.375 77.625 326.765625 75.773438 325.117188 73.953125 C 323.46875 72.136719 321.785156 70.351562 320.0625 68.601562 C 318.339844 66.847656 316.585938 65.132812 314.792969 63.457031 C 313.003906 61.777344 311.175781 60.136719 309.316406 58.53125 C 307.460938 56.929688 305.570312 55.363281 303.644531 53.835938 C 301.722656 52.308594 299.769531 50.824219 297.785156 49.375 C 295.800781 47.929688 293.789062 46.523438 291.75 45.160156 C 289.707031 43.792969 287.640625 42.472656 285.542969 41.191406 C 283.449219 39.914062 281.328125 38.675781 279.183594 37.484375 C 277.035156 36.289062 274.867188 35.140625 272.675781 34.039062 C 270.480469 32.933594 268.269531 31.875 266.03125 30.859375 C 263.796875 29.847656 261.539062 28.878906 259.265625 27.957031 C 256.988281 27.035156 254.695312 26.164062 252.382812 25.335938 C 250.070312 24.507812 247.742188 23.726562 245.402344 22.996094 C 243.058594 22.261719 240.699219 21.578125 238.328125 20.941406 C 235.957031 20.308594 233.574219 19.71875 231.179688 19.183594 C 228.78125 18.644531 226.378906 18.152344 223.960938 17.714844 C 221.546875 17.273438 219.121094 16.882812 216.691406 16.542969 C 214.261719 16.203125 211.824219 15.910156 209.378906 15.671875 C 206.9375 15.429688 204.488281 15.238281 202.039062 15.097656 C 199.585938 14.957031 197.132812 14.867188 194.679688 14.824219 C 192.222656 14.785156 189.769531 14.796875 187.316406 14.855469 C 184.859375 14.914062 182.410156 15.023438 179.957031 15.183594 C 177.507812 15.34375 175.0625 15.554688 172.621094 15.816406 C 170.179688 16.078125 167.746094 16.386719 165.316406 16.746094 C 162.886719 17.105469 160.46875 17.515625 158.054688 17.976562 C 155.644531 18.433594 153.242188 18.941406 150.851562 19.5 C 148.460938 20.054688 146.082031 20.664062 143.714844 21.316406 C 141.347656 21.972656 138.996094 22.675781 136.660156 23.425781 C 134.320312 24.175781 132 24.972656 129.695312 25.820312 C 127.390625 26.664062 125.105469 27.558594 122.835938 28.496094 C 120.566406 29.4375 118.320312 30.421875 116.089844 31.453125 C 113.863281 32.484375 111.65625 33.5625 109.472656 34.683594 C 107.289062 35.804688 105.128906 36.96875 102.992188 38.179688 C 100.855469 39.390625 98.746094 40.644531 96.660156 41.9375 C 94.574219 43.234375 92.519531 44.574219 90.488281 45.953125 C 88.457031 47.335938 86.457031 48.757812 84.484375 50.21875 C 82.511719 51.679688 80.570312 53.183594 78.660156 54.726562 C 76.75 56.265625 74.871094 57.847656 73.023438 59.464844 C 71.179688 61.085938 69.367188 62.742188 67.589844 64.433594 C 65.808594 66.125 64.066406 67.855469 62.359375 69.617188 C 60.652344 71.382812 58.980469 73.179688 57.347656 75.011719 C 55.714844 76.847656 54.117188 78.710938 52.558594 80.609375 C 51.003906 82.507812 49.484375 84.4375 48.003906 86.394531 C 46.527344 88.355469 45.089844 90.34375 43.691406 92.363281 C 42.292969 94.382812 40.9375 96.429688 39.625 98.503906 C 38.3125 100.578125 37.039062 102.675781 35.8125 104.804688 C 33.835938 108.203125 31.96875 111.664062 30.21875 115.1875 C 28.46875 118.710938 26.835938 122.285156 25.320312 125.917969 C 23.804688 129.546875 22.410156 133.222656 21.136719 136.945312 C 19.867188 140.667969 18.71875 144.425781 17.691406 148.226562 C 16.667969 152.023438 15.769531 155.851562 14.996094 159.707031 C 14.222656 163.566406 13.578125 167.445312 13.0625 171.34375 C 12.542969 175.242188 12.15625 179.15625 11.898438 183.082031 C 11.640625 187.003906 11.507812 190.933594 11.507812 194.867188 C 11.507812 198.800781 11.640625 202.730469 11.898438 206.65625 C 12.15625 210.582031 12.542969 214.496094 13.0625 218.394531 C 13.578125 222.292969 14.222656 226.171875 14.996094 230.03125 C 15.769531 233.886719 16.667969 237.714844 17.691406 241.511719 C 18.71875 245.308594 19.867188 249.070312 21.136719 252.792969 C 22.410156 256.515625 23.804688 260.191406 25.320312 263.820312 C 26.835938 267.453125 28.46875 271.027344 30.21875 274.550781 C 31.96875 278.074219 33.835938 281.535156 35.8125 284.933594 C 36.027344 285.292969 36.304688 285.605469 36.515625 285.964844 L 36.597656 286.144531 L 36.714844 286.261719 C 38.683594 289.621094 40.761719 292.914062 42.945312 296.140625 C 45.132812 299.363281 47.417969 302.515625 49.808594 305.59375 C 52.199219 308.667969 54.683594 311.664062 57.269531 314.578125 C 59.855469 317.496094 62.53125 320.324219 65.300781 323.0625 C 68.066406 325.804688 70.921875 328.453125 73.863281 331.007812 C 76.804688 333.5625 79.824219 336.019531 82.925781 338.375 C 86.027344 340.734375 89.199219 342.992188 92.445312 345.140625 C 95.695312 347.292969 99.007812 349.339844 102.386719 351.273438 C 105.769531 353.210938 109.207031 355.035156 112.707031 356.75 C 116.207031 358.460938 119.757812 360.058594 123.359375 361.539062 C 126.964844 363.023438 130.609375 364.386719 134.300781 365.628906 C 137.992188 366.875 141.722656 367.996094 145.484375 369 C 149.25 370 153.042969 370.878906 156.867188 371.636719 C 160.6875 372.390625 164.53125 373.019531 168.390625 373.527344 C 172.253906 374.03125 176.128906 374.410156 180.015625 374.664062 C 183.90625 374.917969 187.796875 375.042969 191.691406 375.042969 C 195.585938 375.042969 199.480469 374.917969 203.367188 374.664062 C 207.253906 374.410156 211.128906 374.03125 214.992188 373.527344 C 218.855469 373.019531 222.695312 372.390625 226.519531 371.636719 C 230.339844 370.878906 234.132812 370 237.898438 369 C 241.664062 367.996094 245.390625 366.875 249.082031 365.628906 C 252.773438 364.386719 256.421875 363.023438 260.023438 361.539062 C 263.625 360.058594 267.179688 358.460938 270.675781 356.75 C 274.175781 355.035156 277.617188 353.210938 280.996094 351.273438 C 284.375 349.339844 287.691406 347.292969 290.9375 345.140625 C 294.183594 342.992188 297.359375 340.734375 300.457031 338.375 C 303.558594 336.019531 306.578125 333.5625 309.519531 331.007812 C 312.460938 328.453125 315.316406 325.804688 318.085938 323.0625 C 320.851562 320.324219 323.53125 317.496094 326.113281 314.578125 C 328.699219 311.664062 331.1875 308.667969 333.574219 305.59375 C 335.964844 302.515625 338.253906 299.363281 340.4375 296.140625 C 342.621094 292.914062 344.699219 289.621094 346.671875 286.261719 L 346.671875 286.144531 C 346.867188 285.785156 347.128906 285.492188 347.339844 285.148438 C 351.320312 278.328125 354.835938 271.277344 357.878906 263.992188 C 360.925781 256.707031 363.480469 249.253906 365.539062 241.628906 C 367.597656 234.007812 369.144531 226.28125 370.179688 218.453125 C 371.214844 210.625 371.730469 202.765625 371.726562 194.867188 Z M 271.292969 235.808594 C 272.714844 222.199219 273.441406 208.550781 273.472656 194.867188 C 273.441406 181.1875 272.714844 167.539062 271.292969 153.929688 C 290.433594 150.265625 308.804688 144.261719 326.414062 135.917969 C 328.476562 140.542969 330.292969 145.261719 331.863281 150.078125 C 333.429688 154.894531 334.742188 159.777344 335.800781 164.730469 C 336.855469 169.683594 337.648438 174.679688 338.179688 179.71875 C 338.707031 184.753906 338.972656 189.804688 338.972656 194.867188 C 338.972656 199.933594 338.707031 204.984375 338.179688 210.019531 C 337.648438 215.058594 336.855469 220.054688 335.800781 225.007812 C 334.742188 229.960938 333.429688 234.84375 331.863281 239.660156 C 330.292969 244.476562 328.476562 249.195312 326.414062 253.820312 C 308.800781 245.488281 290.425781 239.484375 271.292969 235.808594 Z M 191.59375 342.25 C 177.265625 342.25 158.351562 312.773438 148.722656 263.121094 C 177.304688 259.871094 205.882812 259.871094 234.464844 263.121094 C 224.835938 312.773438 205.921875 342.25 191.59375 342.25 Z M 56.773438 253.820312 C 54.710938 249.195312 52.894531 244.476562 51.324219 239.660156 C 49.757812 234.84375 48.445312 229.960938 47.390625 225.007812 C 46.332031 220.054688 45.539062 215.058594 45.011719 210.019531 C 44.480469 204.984375 44.214844 199.933594 44.214844 194.867188 C 44.214844 189.804688 44.480469 184.753906 45.011719 179.71875 C 45.539062 174.679688 46.332031 169.683594 47.390625 164.730469 C 48.445312 159.777344 49.757812 154.894531 51.324219 150.078125 C 52.894531 145.261719 54.710938 140.542969 56.773438 135.917969 C 74.386719 144.25 92.761719 150.253906 111.894531 153.929688 C 108.984375 181.222656 108.984375 208.515625 111.894531 235.808594 C 92.757812 239.472656 74.382812 245.476562 56.773438 253.820312 Z M 74.132812 106.195312 C 75.539062 104.328125 77.113281 102.609375 78.585938 100.824219 C 81.027344 97.894531 83.5 94.996094 86.117188 92.277344 C 87.855469 90.476562 89.707031 88.820312 91.539062 87.132812 C 94.175781 84.679688 96.863281 82.222656 99.726562 80.011719 C 101.726562 78.375 103.789062 76.914062 105.851562 75.425781 C 108.710938 73.363281 111.648438 71.402344 114.660156 69.546875 C 116.84375 68.203125 119.054688 66.914062 121.292969 65.683594 C 124.421875 64.042969 127.613281 62.40625 130.855469 60.949219 C 132.9375 60 135.03125 59.050781 137.160156 58.183594 C 127.371094 78.394531 120.519531 99.554688 116.609375 121.671875 C 101.609375 118.628906 87.148438 113.921875 73.230469 107.554688 C 73.542969 107.113281 73.804688 106.621094 74.132812 106.195312 Z M 262.007812 65.730469 C 264.1875 66.925781 266.316406 68.1875 268.445312 69.480469 C 271.542969 71.382812 274.570312 73.40625 277.515625 75.558594 C 279.496094 76.980469 281.460938 78.40625 283.378906 79.945312 C 286.292969 82.269531 289.09375 84.777344 291.84375 87.347656 C 293.5625 88.984375 295.316406 90.507812 296.953125 92.261719 C 299.738281 95.109375 302.308594 98.171875 304.863281 101.25 C 306.238281 102.886719 307.679688 104.523438 308.988281 106.164062 C 309.335938 106.605469 309.597656 107.113281 309.921875 107.554688 C 296.007812 113.925781 281.546875 118.628906 266.542969 121.652344 C 262.652344 99.558594 255.828125 78.40625 246.074219 58.199219 C 248.171875 59.035156 250.21875 59.96875 252.265625 60.902344 C 255.605469 62.40625 258.863281 63.996094 262.007812 65.730469 Z M 142.46875 194.867188 C 142.46875 182.226562 143.089844 170.304688 144.105469 159.039062 C 159.875 161 175.703125 162.023438 191.59375 162.117188 C 207.484375 162.027344 223.3125 161 239.082031 159.039062 C 240.132812 170.320312 240.71875 182.226562 240.71875 194.867188 C 240.71875 207.511719 240.097656 219.433594 239.082031 230.714844 C 207.421875 227.03125 175.765625 227.03125 144.105469 230.714844 C 143.089844 219.433594 142.46875 207.511719 142.46875 194.867188 Z M 234.464844 126.617188 C 205.882812 129.875 177.304688 129.875 148.722656 126.617188 C 158.351562 76.964844 177.265625 47.488281 191.59375 47.488281 C 205.921875 47.488281 224.835938 76.964844 234.464844 126.617188 Z M 73.230469 282.183594 C 87.148438 275.820312 101.609375 271.125 116.609375 268.101562 C 120.515625 290.222656 127.351562 311.394531 137.128906 331.621094 C 130.789062 329.082031 124.652344 326.117188 118.722656 322.722656 C 112.792969 319.332031 107.128906 315.546875 101.726562 311.367188 C 96.324219 307.1875 91.238281 302.652344 86.464844 297.765625 C 81.691406 292.878906 77.28125 287.683594 73.230469 282.183594 Z M 246.058594 331.621094 C 255.839844 311.398438 262.679688 290.222656 266.578125 268.101562 C 281.578125 271.128906 296.039062 275.820312 309.957031 282.183594 C 305.90625 287.683594 301.496094 292.878906 296.726562 297.765625 C 291.953125 302.65625 286.867188 307.1875 281.464844 311.371094 C 276.0625 315.550781 270.394531 319.335938 264.464844 322.726562 C 258.535156 326.117188 252.402344 329.082031 246.058594 331.621094 Z M 246.058594 331.621094 " fill-opacity="1" fill-rule="nonzero"/></svg>