<svg xmlns="http://www.w3.org/2000/svg" xmlns:xlink="http://www.w3.org/1999/xlink" width="500" zoomAndPan="magnify" viewBox="0 0 375 374.999991" height="500" preserveAspectRatio="xMidYMid meet" version="1.0"><defs><clipPath id="368e789d03"><path d="M 41.734375 3.855469 L 152 3.855469 L 152 312 L 41.734375 312 Z M 41.734375 3.855469 " clip-rule="nonzero"/></clipPath><clipPath id="d873bda724"><path d="M 166 63 L 277 63 L 277 371.355469 L 166 371.355469 Z M 166 63 " clip-rule="nonzero"/></clipPath><clipPath id="5de31618c7"><path d="M 314 15 L 333.484375 15 L 333.484375 35 L 314 35 Z M 314 15 " clip-rule="nonzero"/></clipPath></defs><g clip-path="url(#368e789d03)"><path fill="#2563eb" d="M 41.828125 176.710938 L 41.828125 138.335938 C 49.605469 137.910156 55.46875 136.738281 59.414062 134.816406 C 63.355469 132.898438 66.769531 129.679688 69.644531 125.144531 C 72.523438 120.613281 74.496094 114.941406 75.5625 108.117188 C 76.414062 103 76.84375 94.097656 76.84375 81.414062 C 76.84375 60.734375 77.800781 46.316406 79.71875 38.164062 C 81.640625 30.011719 85.101562 23.453125 90.109375 18.496094 C 95.121094 13.539062 102.421875 9.621094 112.015625 6.746094 C 118.519531 4.824219 128.75 3.867188 142.714844 3.867188 L 151.191406 3.867188 L 151.191406 42.082031 C 139.359375 42.082031 131.761719 42.75 128.40625 44.078125 C 125.046875 45.414062 122.570312 47.433594 120.972656 50.152344 C 119.371094 52.871094 118.574219 57.535156 118.574219 64.144531 C 118.574219 70.859375 118.09375 83.597656 117.132812 102.359375 C 116.601562 112.910156 115.214844 121.46875 112.976562 128.023438 C 110.738281 134.578125 107.882812 139.988281 104.421875 144.25 C 100.957031 148.515625 95.652344 152.941406 88.511719 157.523438 C 94.800781 161.148438 99.945312 165.382812 103.945312 170.234375 C 107.941406 175.085938 111.003906 180.972656 113.136719 187.902344 C 115.269531 194.832031 116.65625 204.105469 117.292969 215.722656 C 118.039062 233.417969 118.410156 244.714844 118.410156 249.621094 C 118.410156 256.652344 119.265625 261.554688 120.972656 264.328125 C 122.675781 267.101562 125.261719 269.207031 128.726562 270.648438 C 132.1875 272.085938 139.679688 272.804688 151.191406 272.804688 L 151.191406 311.175781 L 142.714844 311.175781 C 128.324219 311.175781 117.292969 310.027344 109.617188 307.742188 C 101.941406 305.449219 95.46875 301.636719 90.191406 296.308594 C 84.917969 290.976562 81.371094 284.394531 79.558594 276.558594 C 77.746094 268.726562 76.84375 256.386719 76.84375 239.546875 C 76.84375 219.9375 75.988281 207.195312 74.28125 201.332031 C 71.9375 192.804688 68.394531 186.703125 63.648438 183.023438 C 58.90625 179.347656 51.628906 177.242188 41.828125 176.710938 " fill-opacity="1" fill-rule="nonzero"/></g><path fill="#94a3b8" d="M 284.398438 83.476562 L 259.371094 83.476562 L 259.371094 58.449219 L 284.398438 58.449219 L 284.398438 83.476562 " fill-opacity="1" fill-rule="nonzero"/><path fill="#94a3b8" d="M 278.488281 133.523438 L 259.371094 133.523438 L 259.371094 114.40625 L 278.488281 114.40625 L 278.488281 133.523438 " fill-opacity="1" fill-rule="nonzero"/><g clip-path="url(#d873bda724)"><path fill="#94a3b8" d="M 205.683594 102.597656 L 205.683594 83.476562 L 224.804688 83.476562 L 224.804688 102.597656 Z M 254.320312 191.988281 C 249.523438 188.3125 245.953125 182.210938 243.609375 173.683594 C 242.320312 168.871094 241.550781 159.652344 241.300781 146.039062 L 224.804688 146.039062 L 224.804688 121.011719 L 240.9375 121.011719 C 240.535156 111.359375 239.695312 103.84375 238.410156 98.453125 C 236.546875 90.617188 233 84.011719 227.78125 78.628906 C 222.558594 73.246094 216.109375 69.433594 208.433594 67.195312 C 200.757812 64.953125 189.726562 63.839844 175.335938 63.839844 L 166.863281 63.839844 L 166.863281 102.050781 C 178.90625 102.050781 186.660156 102.769531 190.125 104.207031 C 193.589844 105.648438 195.984375 107.703125 197.320312 110.363281 C 198.652344 113.03125 199.371094 118.359375 199.480469 126.355469 C 200.011719 151.722656 200.863281 168.140625 202.035156 175.601562 C 203.847656 186.476562 207.257812 195.425781 212.269531 202.460938 C 215.890625 207.367188 221.648438 212.375 229.539062 217.492188 C 223.460938 221.007812 218.476562 225.085938 214.589844 229.726562 C 210.695312 234.363281 207.578125 240.011719 205.234375 246.671875 C 202.890625 253.335938 201.453125 262.210938 200.917969 273.292969 C 200.0625 291.628906 199.609375 304.042969 199.5625 310.546875 C 199.503906 317.050781 198.652344 321.660156 197 324.378906 C 195.347656 327.097656 192.765625 329.175781 189.246094 330.617188 C 185.726562 332.054688 178.265625 332.773438 166.863281 332.773438 L 166.863281 371.148438 L 175.335938 371.148438 C 189.296875 371.148438 199.53125 370.1875 206.03125 368.269531 C 215.734375 365.390625 223.085938 361.476562 228.101562 356.519531 C 233.109375 351.5625 236.546875 344.980469 238.410156 336.769531 C 240.277344 328.5625 241.210938 314.121094 241.210938 293.4375 C 241.210938 280.863281 241.636719 272.015625 242.488281 266.898438 C 243.660156 260.078125 245.660156 254.402344 248.484375 249.871094 C 251.308594 245.339844 254.691406 242.117188 258.640625 240.199219 C 262.578125 238.277344 268.445312 237.105469 276.226562 236.679688 L 276.226562 198.304688 C 266.417969 197.773438 259.117188 195.664062 254.320312 191.988281 " fill-opacity="1" fill-rule="nonzero"/></g><g clip-path="url(#5de31618c7)"><path fill="#94a3b8" d="M 333.191406 34.871094 L 314.070312 34.871094 L 314.070312 15.75 L 333.191406 15.75 L 333.191406 34.871094 " fill-opacity="1" fill-rule="nonzero"/></g><path fill="#94a3b8" d="M 237.316406 58.449219 L 201.625 58.449219 L 201.625 22.757812 L 237.316406 22.757812 L 237.316406 58.449219 " fill-opacity="1" fill-rule="nonzero"/></svg>